<?xml version="1.0" standalone="no"?>
<svg version="1.0" xmlns="http://www.w3.org/2000/svg"
 width="512.000000pt" height="512.000000pt" viewBox="0 0 512.000000 512.000000"
 preserveAspectRatio="xMidYMid meet">

<g transform="translate(0.000000,512.000000) scale(0.100000,-0.100000)"
fill="#FFC107" stroke="none">
<path d="M2315 5109 c-884 -91 -1661 -631 -2049 -1423 -93 -188 -137 -308
-186 -500 -61 -240 -74 -355 -74 -626 0 -271 13 -386 74 -626 49 -192 93 -312
185 -500 248 -505 663 -920 1170 -1169 248 -122 496 -199 770 -241 169 -26
541 -26 710 0 562 85 1054 333 1450 731 439 440 689 974 746 1595 14 158 7
413 -16 570 -106 718 -510 1358 -1115 1765 -322 216 -665 349 -1060 410 -126
19 -477 28 -605 14z m420 -509 c316 -30 599 -121 863 -278 528 -314 880 -831
984 -1442 30 -177 30 -463 0 -640 -150 -883 -820 -1552 -1702 -1702 -166 -28
-454 -30 -615 -5 -448 72 -836 269 -1150 582 -657 656 -791 1663 -328 2464
160 276 415 545 670 704 393 247 841 358 1278 317z"/>
<path d="M2386 3829 c-482 -67 -886 -396 -1036 -847 -51 -155 -65 -241 -65
-422 0 -181 14 -267 65 -422 101 -301 323 -560 610 -712 407 -214 923 -188
1295 64 82 56 195 156 195 173 0 7 -78 90 -174 186 l-174 173 -68 -56 c-79
-65 -199 -128 -294 -153 -98 -26 -282 -23 -385 6 -272 76 -460 265 -536 536
-32 113 -32 297 0 410 76 271 264 459 536 536 110 31 295 32 408 1 104 -28
208 -84 279 -151 l59 -54 174 178 c96 98 175 181 175 185 0 14 -122 120 -195
170 -127 86 -264 144 -425 181 -100 23 -340 33 -444 18z"/>
</g>
</svg>
