<?xml version="1.0" encoding="UTF-8"?>
<svg version="1.1" xmlns="http://www.w3.org/2000/svg" width="1024" height="1024">
<path d="M0 0 C1.21357178 0.00182281 2.42714355 0.00364563 3.67749023 0.00552368 C80.08364994 0.19760271 153.11930888 17.21209778 221.625 51.3125 C222.45805664 51.72435547 223.29111328 52.13621094 224.14941406 52.56054688 C244.75561107 62.81671615 264.3933507 75.09054775 282.77929688 88.92529297 C284.45271888 90.1830157 286.13969185 91.4226583 287.828125 92.66015625 C310.40565576 109.29146567 331.32699914 127.98705949 351.1875 147.75 C352.15115479 148.70664551 352.15115479 148.70664551 353.13427734 149.68261719 C356.93659633 153.49784559 360.54385447 157.43444841 364.06420898 161.51098633 C365.95656144 163.69519855 367.91426672 165.81465885 369.875 167.9375 C374.42302765 172.97803826 378.59192095 178.26128466 382.74609375 183.625 C384.64276232 186.07031307 386.57047275 188.48401105 388.53515625 190.875 C447.54364123 262.83156558 480.29796317 354.20205826 488.9375 487.6875 C488.93476578 489.50785767 488.93476578 489.50785767 488.93197632 491.36499023 C488.73989729 567.77114994 471.72540222 640.80680888 437.625 709.3125 C437.21314453 710.14555664 436.80128906 710.97861328 436.37695312 711.83691406 C426.12078385 732.44311107 413.84695225 752.0808507 400.01220703 770.46679688 C398.7544843 772.14021888 397.5148417 773.82719185 396.27734375 775.515625 C379.50188103 798.28884844 360.62363151 819.34676448 340.6875 839.375 C340.00212158 840.06505127 339.31674316 840.75510254 338.6105957 841.46606445 C334.67438902 845.3898586 330.63014008 849.12991765 326.42211914 852.76049805 C324.18132426 854.69566081 321.99763635 856.68987973 319.8125 858.6875 C314.56056426 863.41503671 309.14971159 867.90888486 303.625 872.3125 C303.00689453 872.8084668 302.38878906 873.30443359 301.75195312 873.81542969 C233.16812717 928.68912974 151.62567466 962.41640195 64.625 973.3125 C63.32900879 973.47766113 62.03301758 973.64282227 60.69775391 973.81298828 C19.92787446 978.75277946 -22.64165014 978.50355851 -63.375 973.3125 C-64.05254333 973.22764343 -64.73008667 973.14278687 -65.42816162 973.05535889 C-115.46647266 966.75835361 -163.69303305 952.73881611 -209.375 931.3125 C-210.26058594 930.90064453 -211.14617187 930.48878906 -212.05859375 930.06445312 C-232.74481809 920.36677697 -252.66891141 908.40899691 -271.375 895.3125 C-271.95459473 894.90870117 -272.53418945 894.50490234 -273.13134766 894.08886719 C-285.28904236 885.5999843 -296.97332831 876.62619435 -308.234375 866.98046875 C-311.19416681 864.45041244 -314.21628796 862.00356065 -317.25 859.5625 C-320.92140689 856.57649324 -324.3270517 853.49444514 -327.60327148 850.08325195 C-329.32211805 848.36535281 -331.10140822 846.79535055 -332.953125 845.22265625 C-338.00588864 840.83025954 -342.71589533 836.11795329 -347.4375 831.375 C-348.29666016 830.51970703 -349.15582031 829.66441406 -350.04101562 828.78320312 C-354.4916032 824.32581557 -358.7981548 819.80496808 -362.90209961 815.02612305 C-364.759061 812.86567021 -366.69219593 810.78010283 -368.625 808.6875 C-373.17302765 803.64696174 -377.34192095 798.36371534 -381.49609375 793 C-383.39276232 790.55468693 -385.32047275 788.14098895 -387.28515625 785.75 C-446.29364123 713.79343442 -479.04796317 622.42294174 -487.6875 488.9375 C-487.68567719 487.72392822 -487.68385437 486.51035645 -487.68197632 485.26000977 C-487.48989729 408.85385006 -470.47540222 335.81819112 -436.375 267.3125 C-435.7572168 266.06291504 -435.7572168 266.06291504 -435.12695312 264.78808594 C-424.87078385 244.18188893 -412.59695225 224.5441493 -398.76220703 206.15820312 C-397.5044843 204.48478112 -396.2648417 202.79780815 -395.02734375 201.109375 C-378.39603433 178.53184424 -359.70044051 157.61050086 -339.9375 137.75 C-339.29973633 137.10756348 -338.66197266 136.46512695 -338.00488281 135.80322266 C-334.18965441 132.00090367 -330.25305159 128.39364553 -326.17651367 124.87329102 C-323.99230145 122.98093856 -321.87284115 121.02323328 -319.75 119.0625 C-314.70946174 114.51447235 -309.42621534 110.34557905 -304.0625 106.19140625 C-301.61718693 104.29473768 -299.20348895 102.36702725 -296.8125 100.40234375 C-224.85593442 41.39385877 -133.48544174 8.63953683 0 0 Z " fill="#828282" transform="translate(511.375,23.6875)"/>
<path d="M0 0 C0.66016113 0.09651855 1.32032227 0.19303711 2.00048828 0.29248047 C28.56006613 4.23466495 51.77195804 16.58705139 72 34 C72.92941406 34.7940625 73.85882813 35.588125 74.81640625 36.40625 C81.28908942 42.09572951 86.79958663 48.13545435 92 55 C92.4007373 55.52577637 92.80147461 56.05155273 93.21435547 56.59326172 C100.02145234 65.59053735 105.77840615 75.00487812 111 85 C111.60585938 86.15628906 112.21171875 87.31257813 112.8359375 88.50390625 C121.93258059 106.92357947 127.32728515 126.86056846 131 147 C131.16371094 147.8564209 131.32742188 148.7128418 131.49609375 149.59521484 C134.84031752 167.57732718 134 184.36605293 134 203 C44.57 203 -44.86 203 -137 203 C-135.5310509 239.72372751 -130.54258541 272.08953092 -102.8125 298.125 C-80.51577859 317.02118158 -54.00885498 324.66725521 -25.1875 324.4375 C-24.35238892 324.43379395 -23.51727783 324.43008789 -22.65686035 324.42626953 C1.3105266 324.27484584 23.13891888 319.85772426 42 304 C42.87140625 303.278125 43.7428125 302.55625 44.640625 301.8125 C57.99456414 290.29772613 64.76872451 276.92510196 69 260 C88.47 260 107.94 260 128 260 C124.20578372 294.14794653 105.59117089 323.54808414 79.25561523 345.02270508 C49.79681495 368.07881423 14.05732928 377.63109406 -22.87817383 377.39111328 C-25.80012072 377.37506798 -28.72067333 377.39104762 -31.64257812 377.41015625 C-48.59545541 377.42988171 -65.76257867 376.08442976 -82.125 371.375 C-83.46618896 370.99649902 -83.46618896 370.99649902 -84.83447266 370.61035156 C-123.54969253 359.15179097 -155.81081628 332.29424059 -175 297 C-186.24576823 276.25780527 -193.35878348 253.27332691 -197 230 C-197.14131348 229.10104004 -197.28262695 228.20208008 -197.42822266 227.27587891 C-198.36683302 221.1944001 -199.24652908 215.10730724 -200 209 C-200.09716309 208.22197021 -200.19432617 207.44394043 -200.29443359 206.64233398 C-205.98540037 156.33807025 -192.91286583 101.74871407 -161.5 61.625 C-131.99005356 24.87934072 -92.87645438 3.63680626 -46.20703125 -1.46484375 C-30.7400349 -2.93846905 -15.33296095 -2.41502639 0 0 Z " fill="#FEFEFE" transform="translate(355,324)"/>
<path d="M0 0 C10.18693058 -0.4658609 20.37128726 -0.81992294 30.56674385 -1.03624344 C35.30307155 -1.1401488 40.03206016 -1.28064195 44.76416016 -1.50878906 C75.17311303 -2.93646408 75.17311303 -2.93646408 83.00512695 1.82818604 C87.71117823 6.32539815 90.45019093 11.56213109 92.92791748 17.5222168 C94.40713653 20.94096866 96.34583344 23.68576135 98.515625 26.7109375 C99.76232634 28.59769788 101.00716999 30.48568729 102.25 32.375 C107.13381657 39.7520843 112.10854865 47.01567806 117.3046875 54.17578125 C121.75049226 60.39956032 125.91137952 66.82583517 130.1171875 73.21289062 C133.31555292 78.0520175 136.56615641 82.82436815 140 87.5 C144.14878689 93.14912164 148.02110525 98.9597286 151.875 104.8125 C157.74256851 113.67417356 163.72019861 122.42565579 170 131 C178.57124698 120.39182138 186.5082412 109.36605725 194.14233398 98.06982422 C197.62784689 92.93683143 201.23806598 87.93338899 205 83 C209.96838341 76.4824328 214.61828042 69.78565799 219.21264648 63.00048828 C222.99576309 57.42745525 226.90052866 51.96670929 230.91088867 46.55566406 C234.81161812 41.2851321 238.59350353 35.93644989 242.36157227 30.57055664 C246.72938992 24.35985565 251.16967611 18.20324515 255.63623047 12.06323242 C256.14814941 11.35787354 256.66006836 10.65251465 257.1875 9.92578125 C257.63480469 9.31130127 258.08210938 8.69682129 258.54296875 8.0637207 C260.13877732 5.89681269 260.13877732 5.89681269 261.63238525 2.91358948 C264 0 264 0 267.32830811 -0.7215271 C268.66511666 -0.73884829 270.00260514 -0.72311532 271.33886719 -0.68115234 C272.43702003 -0.68246658 272.43702003 -0.68246658 273.55735779 -0.68380737 C275.97162468 -0.67963473 278.38309516 -0.63300597 280.796875 -0.5859375 C282.47266115 -0.57474401 284.14846697 -0.56620454 285.82427979 -0.56021118 C290.23067633 -0.53732435 294.6358823 -0.4784038 299.04180908 -0.4119873 C303.53942763 -0.35056077 308.03723896 -0.32319547 312.53515625 -0.29296875 C321.35729335 -0.22865927 330.1785476 -0.12628256 339 0 C334.65158659 7.68238974 334.65158659 7.68238974 332.0390625 10.953125 C331.21946045 11.9901355 331.21946045 11.9901355 330.38330078 13.0480957 C329.80306152 13.77472412 329.22282227 14.50135254 328.625 15.25 C323.67777332 21.52508461 318.8389775 27.86033618 314.125 34.3125 C309.08227414 41.2107032 303.9477227 48.03034365 298.75 54.8125 C294.40874467 60.48050605 290.10585372 66.15880896 286 72 C281.23679245 78.77637519 276.20094042 85.33580436 271.1640625 91.91015625 C266.71275775 97.72852838 262.3275176 103.58907773 258 109.5 C252.41788355 117.1216133 246.71644902 124.64505816 240.97412109 132.14648438 C235.86853957 138.8284436 230.85167701 145.57079778 225.90014648 152.36767578 C223.29192333 155.93818182 220.65803977 159.4649483 217.87109375 162.8984375 C217.39397949 163.49140625 216.91686523 164.084375 216.42529297 164.6953125 C215.16194124 166.25243538 213.88053194 167.79486021 212.59765625 169.3359375 C210.74041463 171.83127705 210.74041463 171.83127705 211.24267578 174.41137695 C212.01848287 177.0631766 212.95169417 178.82016641 214.51953125 181.08203125 C215.30179077 182.22019287 215.30179077 182.22019287 216.09985352 183.38134766 C216.66502686 184.18362793 217.2302002 184.9859082 217.8125 185.8125 C218.39636475 186.65345215 218.98022949 187.4944043 219.58178711 188.36083984 C223.77806103 194.3655498 228.1196716 200.25064617 232.55029297 206.08374023 C236.63625074 211.47160289 240.54926193 216.96747302 244.42993164 222.50439453 C248.07546432 227.70248968 251.77318427 232.85990837 255.5 238 C259.70704228 243.80553095 263.8759547 249.63522 268 255.5 C274.25432876 264.39076572 280.6211553 273.19833001 287 282 C293.88325617 291.49766801 300.73384082 301.01432033 307.48291016 310.60791016 C313.24814524 318.79186072 319.12553993 326.894291 325 335 C331.51786103 343.99348777 338.02346826 352.99452524 344.4375 362.0625 C344.90937744 362.72838135 345.38125488 363.3942627 345.86743164 364.08032227 C348.35248651 367.60393379 350.78437146 371.15742017 353.17211914 374.74780273 C353.70414444 375.54733871 354.23616974 376.34687469 354.78431702 377.17063904 C355.1854924 377.77432816 355.58666779 378.37801727 356 379 C345.70805082 379.25536154 335.41685999 379.45056193 325.12238312 379.56993389 C320.34151491 379.62724209 315.56282021 379.70490008 310.78320312 379.82983398 C306.16644621 379.94974957 301.55177294 380.01520264 296.93357849 380.04364967 C295.17589 380.06390769 293.41831027 380.10347334 291.66151428 380.16303062 C277.9784571 380.60826483 277.9784571 380.60826483 273.32363892 376.82441711 C271.2233364 373.98573309 269.60836776 371.14017904 268 368 C266.90822496 366.34636292 265.79607253 364.70595518 264.66162109 363.08129883 C263.57171577 361.437151 262.48404827 359.79151788 261.3984375 358.14453125 C260.17726422 356.3025613 258.95556886 354.46093739 257.73339844 352.61962891 C256.80690491 351.22287933 256.80690491 351.22287933 255.86169434 349.7979126 C252.87821017 345.31407883 249.86612847 340.84969249 246.8515625 336.38671875 C246.26283356 335.51478378 245.67410461 334.64284882 245.0675354 333.74449158 C243.86760608 331.96769631 242.66750128 330.19101954 241.46722412 328.41445923 C224.77662524 303.70813706 224.77662524 303.70813706 216.875 291.8125 C209.69571202 281.00801709 202.44353625 270.25303204 195.1875 259.5 C194.61441101 258.6502359 194.04132202 257.8004718 193.4508667 256.92495728 C187.57412542 248.21242396 181.68341041 239.50980795 175.73828125 230.84375 C175.27278366 230.16405151 174.80728607 229.48435303 174.3276825 228.78405762 C172.3365358 225.75358654 172.3365358 225.75358654 170 223 C169.38608398 223.92522461 169.38608398 223.92522461 168.75976562 224.86914062 C161.08290764 236.41274057 153.31088747 247.89230396 145.55419922 259.38232422 C136.31679985 273.06645715 136.31679985 273.06645715 127.14257812 286.79296875 C122.42749677 293.85054722 117.66644419 300.87734604 112.91656494 307.91152954 C104.28777953 320.69093083 95.66194518 333.47151986 87.125 346.3125 C86.58532089 347.08392838 86.04564178 347.85535675 85.48960876 348.65016174 C82.32047011 353.24664076 79.60889534 357.67656664 77.3918457 362.80786133 C74.30896431 369.31818854 71.06467972 374.89233856 65 379 C53.8423591 382.98426197 40.32733822 381.16032608 28.73931885 380.51062012 C24.25624042 380.28348647 19.7704037 380.1846675 15.28320312 380.07421875 C6.51458037 379.83985564 -2.24062879 379.46573148 -11 379 C-10.05786479 377.582274 -9.11511716 376.16495498 -8.17211914 374.74780273 C-7.64719376 373.95848862 -7.12226837 373.1691745 -6.58143616 372.35594177 C-4.25292315 368.88704356 -1.85295463 365.47119485 0.5625 362.0625 C1.07425781 361.33869141 1.58601562 360.61488281 2.11328125 359.86914062 C6.41692887 353.79493895 10.77504359 347.76083671 15.14282227 341.73266602 C18.79896542 336.68074895 22.41304607 331.60123527 26 326.5 C30.66136749 319.87077288 35.38944431 313.29271463 40.14453125 306.73046875 C43.79995588 301.67917792 47.41357962 296.60047648 51 291.5 C55.12391276 285.63512143 59.29325447 279.80574605 63.5 274 C69.74043252 265.38473364 75.88201356 256.70248236 82 248 C88.6539279 238.53517186 95.35032529 229.10543177 102.13989258 219.73730469 C106.34230448 213.93143178 110.48751586 208.08729222 114.5925293 202.2121582 C117.07601641 198.67091264 119.60363576 195.17879608 122.23046875 191.7421875 C122.74786621 191.05987061 123.26526367 190.37755371 123.79833984 189.67456055 C124.78388651 188.38120932 125.7798426 187.09570287 126.78759766 185.81958008 C129.31228227 182.77180496 129.31228227 182.77180496 129.77099609 179.03662109 C128.93890101 176.83860426 127.94253968 175.23212722 126.55078125 173.33984375 C126.03974854 172.63867432 125.52871582 171.93750488 125.00219727 171.21508789 C124.44459717 170.46348389 123.88699707 169.71187988 123.3125 168.9375 C122.73234131 168.14529053 122.15218262 167.35308105 121.55444336 166.53686523 C119.7089969 164.02007728 117.85488527 161.50983688 116 159 C114.8380809 157.41960949 113.67661345 155.83888681 112.515625 154.2578125 C109.60509149 150.29782164 106.68677398 146.34363864 103.76611328 142.39111328 C100.84043897 138.43008838 97.92049694 134.46484283 95 130.5 C93.8333611 128.91664621 92.66669442 127.33331288 91.5 125.75 C89.16666667 122.58333333 86.83333333 119.41666667 84.5 116.25 C83.92241943 115.46616943 83.34483887 114.68233887 82.74975586 113.87475586 C81.58379194 112.29231815 80.41793896 110.70979869 79.25219727 109.12719727 C76.32568557 105.15448113 73.39722466 101.18323006 70.46484375 97.21484375 C64.72576518 89.44400126 59.01570381 81.65511304 53.375 73.8125 C49.31032322 68.16136904 45.1931778 62.55644303 41 57 C36.25009514 50.70582955 31.61019511 44.33938522 27.00708008 37.93725586 C22.93851018 32.28400197 18.82443412 26.66589293 14.6875 21.0625 C14.10097656 20.26755127 13.51445313 19.47260254 12.91015625 18.65356445 C10.81004986 15.80738334 8.70974112 12.96135169 6.60888672 10.11572266 C5.4451125 8.53730629 4.28487885 6.95628104 3.125 5.375 C2.50882813 4.53710938 1.89265625 3.69921875 1.2578125 2.8359375 C0 1 0 1 0 0 Z " fill="#FEFEFE" transform="translate(514,323)"/>
<path d="M0 0 C1.80404297 0.49306641 1.80404297 0.49306641 3.64453125 0.99609375 C18.33679765 5.4422351 31.71774597 12.53228658 43 23 C43.91136719 23.81984375 44.82273437 24.6396875 45.76171875 25.484375 C64.69529307 43.33527631 74.38683698 67.57099661 78 93 C78 94.98 78 96.96 78 99 C9.36 99 -59.28 99 -130 99 C-128.83485449 81.52281739 -128.83485449 81.52281739 -126.8125 74.4375 C-126.59110352 73.63868408 -126.36970703 72.83986816 -126.14160156 72.0168457 C-119.1998263 47.83923304 -104.74454779 27.21580686 -84 13 C-82.75476563 12.14148438 -82.75476563 12.14148438 -81.484375 11.265625 C-58.14673963 -3.72610103 -26.53185185 -7.47248279 0 0 Z " fill="#828282" transform="translate(348,378)"/>
</svg>
