<?xml version="1.0" encoding="UTF-8"?>
<svg version="1.1" xmlns="http://www.w3.org/2000/svg" width="1438" height="1438">
<path d="M0 0 C1.4082696 -0.007015 2.81653884 -0.01410187 4.22480774 -0.02125549 C8.72539697 -0.0407557 13.22593533 -0.04569169 17.7265625 -0.046875 C18.49211582 -0.04731686 19.25766914 -0.04775871 20.04642105 -0.04821396 C43.60126712 -0.05535372 66.94883943 0.27305635 90.3515625 3.203125 C91.70619456 3.36591323 93.06084978 3.52850883 94.41552734 3.69091797 C181.42068754 14.32904974 265.76218485 49.43840498 330.76953125 108.8671875 C332.18639803 110.14901251 333.60972176 111.42426213 335.06079102 112.66723633 C340.95327459 117.72251202 346.43770187 123.140811 351.9140625 128.640625 C352.82091797 129.54361328 353.72777344 130.44660156 354.66210938 131.37695312 C359.76840164 136.49065118 364.66986131 141.69945138 369.3515625 147.203125 C370.32459037 148.32112299 371.29851689 149.43833964 372.2734375 150.5546875 C400.3515625 182.97171439 400.3515625 182.97171439 400.3515625 188.203125 C398.0126688 190.09550263 395.66121564 191.87866857 393.2265625 193.640625 C391.74121043 194.7343514 390.2568521 195.82942851 388.7734375 196.92578125 C387.65098633 197.75360107 387.65098633 197.75360107 386.50585938 198.59814453 C383.45369712 200.87204692 380.45998838 203.21512859 377.4765625 205.578125 C376.33472117 206.48057726 375.1927918 207.38291813 374.05078125 208.28515625 C373.46087402 208.75131348 372.8709668 209.2174707 372.26318359 209.69775391 C362.48532462 217.39766175 352.62985998 224.9995835 342.7578125 232.578125 C338.60914861 235.76940491 334.48126003 238.98736636 330.3515625 242.203125 C322.0260409 248.68539299 313.66819672 255.12386601 305.296875 261.546875 C298.17846795 267.01437966 291.08707437 272.51562414 284.00512695 278.03027344 C278.60494615 282.23352166 273.1859655 286.41105805 267.7578125 290.578125 C263.60914882 293.76940475 259.48123769 296.987338 255.3515625 300.203125 C249.18387166 305.0059192 243.00264841 309.78944155 236.796875 314.54296875 C234.06806963 316.64097433 231.36072091 318.76526094 228.65625 320.89453125 C227.84091797 321.53455078 227.02558594 322.17457031 226.18554688 322.83398438 C224.57215765 324.10137273 222.96138425 325.37209961 221.35351562 326.64648438 C220.25040039 327.51176758 220.25040039 327.51176758 219.125 328.39453125 C218.14152588 329.17098999 218.14152588 329.17098999 217.13818359 329.96313477 C215.3515625 331.203125 215.3515625 331.203125 212.3515625 332.203125 C211.51753906 331.23632812 210.68351562 330.26953125 209.82421875 329.2734375 C208.68755324 327.95828732 207.55083141 326.64318581 206.4140625 325.328125 C205.59711914 324.38066406 205.59711914 324.38066406 204.76367188 323.4140625 C196.63275753 314.01416153 188.26327796 304.93346788 179.4765625 296.140625 C178.56003906 295.21185547 177.64351562 294.28308594 176.69921875 293.32617188 C162.07063378 278.66672491 145.40404662 266.31235045 127.3515625 256.203125 C126.57570801 255.76468262 125.79985352 255.32624023 125.00048828 254.87451172 C75.57936558 227.19208965 14.58958255 220.16245542 -40.03759766 235.43457031 C-69.16049643 244.00749769 -96.65563669 258.06110952 -118.6484375 279.203125 C-119.99662792 280.37669266 -121.35066078 281.54358815 -122.7109375 282.703125 C-131.29979757 290.24414414 -138.50595245 298.45453873 -145.38769531 307.54101562 C-146.48192597 308.98360321 -147.59120987 310.4147488 -148.703125 311.84375 C-171.95692116 342.52718228 -186.66919251 380.29612166 -192.6484375 418.203125 C-192.80779785 419.17040527 -192.9671582 420.13768555 -193.13134766 421.13427734 C-203.69887582 487.70643985 -190.52462712 563.02739476 -150.6484375 618.203125 C-143.27708957 628.071943 -135.12890232 637.2798511 -126.6484375 646.203125 C-125.99875 646.90566406 -125.3490625 647.60820313 -124.6796875 648.33203125 C-118.62027149 654.68671541 -111.64492518 659.93342118 -104.6484375 665.203125 C-103.81441406 665.8321875 -102.98039063 666.46125 -102.12109375 667.109375 C-56.67691996 700.0466907 0.6446663 710.16721226 55.52490234 701.71435547 C100.37512315 694.30443415 139.30657467 675.10263882 172.859375 644.4765625 C174.48876361 642.99019232 176.12903844 641.51564627 177.78125 640.0546875 C187.23634259 631.68708159 196.19542722 622.84820993 204.3515625 613.203125 C205.35711428 612.03693314 206.36372643 610.87165518 207.37109375 609.70703125 C208.46892655 608.43504819 209.56658151 607.16291162 210.6640625 605.890625 C211.19257812 605.27912598 211.72109375 604.66762695 212.265625 604.03759766 C212.76449219 603.45671387 213.26335937 602.87583008 213.77734375 602.27734375 C214.22505127 601.75744873 214.67275879 601.23755371 215.1340332 600.7019043 C216.2964956 599.27091239 217.32888778 597.73713708 218.3515625 596.203125 C223.43243704 597.8302027 227.30393477 600.88072618 231.5390625 604.015625 C233.15881553 605.19927162 234.77860829 606.38286388 236.3984375 607.56640625 C237.22279297 608.17178223 238.04714844 608.7771582 238.89648438 609.40087891 C242.68441561 612.18155794 246.48380449 614.94621578 250.2890625 617.703125 C251.02648682 618.23776367 251.76391113 618.77240234 252.52368164 619.32324219 C257.94411238 623.2339852 263.44329883 627.01676197 268.9765625 630.765625 C275.5637137 635.2286852 281.96971416 639.86452153 288.29785156 644.68603516 C294.11111133 649.08709113 300.10713487 653.18841248 306.14233398 657.27734375 C314.67726758 663.07250933 323.01327111 669.13009689 331.3515625 675.203125 C341.46096404 682.5515649 351.62077097 689.8158816 361.87475586 696.96142578 C368.30971355 701.45320012 374.70883233 705.99326543 381.01513672 710.66455078 C384.37901918 713.14220436 387.70407828 715.46606628 391.36328125 717.48828125 C396.05307487 720.13695297 399.64698229 722.27515793 401.56640625 727.52734375 C402.42837997 736.79598253 399.0426223 742.37805196 393.40332031 749.35058594 C391.74103521 751.32123697 390.04933249 753.26303057 388.3515625 755.203125 C387.3714809 756.37075308 386.39474832 757.54120293 385.421875 758.71484375 C383.60593548 760.89690526 381.7704626 763.05930072 379.9140625 765.20703125 C377.60062837 767.91191536 375.37694195 770.66607039 373.1640625 773.453125 C363.36597581 785.44584486 352.27031411 796.36901897 341.3515625 807.328125 C340.47983398 808.20452637 339.60810547 809.08092773 338.70996094 809.98388672 C333.75117948 814.93030451 328.68485526 819.66424497 323.3515625 824.203125 C322.34212762 825.08036074 321.33299021 825.95793895 320.32421875 826.8359375 C251.50861044 885.7679618 168.57243801 917.68368027 79.3515625 929.203125 C78.63665649 929.29613892 77.92175049 929.38915283 77.18518066 929.48498535 C-13.87145528 941.13642758 -108.30702525 927.44619095 -191.6484375 889.203125 C-192.56077148 888.78949707 -193.47310547 888.37586914 -194.41308594 887.94970703 C-233.11959212 870.35519588 -269.63741756 846.26014123 -301.04638672 817.56982422 C-302.6701816 816.09289913 -304.3010402 814.62365881 -305.94238281 813.16625977 C-312.2883676 807.5300059 -318.34830829 801.65438204 -324.3359375 795.640625 C-325.23376953 794.74666016 -326.13160156 793.85269531 -327.05664062 792.93164062 C-332.1295848 787.85126356 -337.00589205 782.67892897 -341.6484375 777.203125 C-342.12885498 776.64439697 -342.60927246 776.08566895 -343.10424805 775.51000977 C-344.45851866 773.93371976 -345.80455172 772.35077217 -347.1484375 770.765625 C-347.58285156 770.25708984 -348.01726563 769.74855469 -348.46484375 769.22460938 C-348.90699219 768.70318359 -349.34914063 768.18175781 -349.8046875 767.64453125 C-350.24457976 767.13992339 -350.68447203 766.63531553 -351.13769436 766.11541653 C-352.6484375 764.203125 -352.6484375 764.203125 -353.94214725 761.93744755 C-356.34732281 758.03841584 -358.16931854 755.60735524 -362.69538689 754.37042046 C-366.57995497 754.05375237 -370.41281131 754.02302663 -374.30444336 754.08959961 C-375.81717755 754.08232698 -377.32989706 754.07110649 -378.84257603 754.05627537 C-382.88095439 754.02751591 -386.91729644 754.05253405 -390.95554352 754.08896637 C-394.74965462 754.11497081 -398.54287107 754.09211772 -402.33703613 754.07336426 C-413.41999429 754.04688219 -424.5030278 754.098489 -435.5859375 754.140625 C-460.3565625 754.16125 -485.1271875 754.181875 -510.6484375 754.203125 C-510.6484375 690.183125 -510.6484375 626.163125 -510.6484375 560.203125 C-489.1984375 560.203125 -467.7484375 560.203125 -445.6484375 560.203125 C-449.76878524 546.90883738 -449.76878524 546.90883738 -454.58984375 533.93359375 C-454.94967346 533.03063065 -455.30950317 532.12766754 -455.68023682 531.19734192 C-456.45088906 529.26521781 -457.22416177 527.33413707 -457.99990845 525.40405273 C-459.68759232 521.20455532 -461.3617194 516.99968938 -463.03691101 512.79519653 C-463.91769726 510.58487356 -464.79914297 508.37481327 -465.68122864 506.16500854 C-470.32366548 494.53028765 -474.89518784 482.86810351 -479.4609375 471.203125 C-481.13381346 466.93217368 -482.80715992 462.66140674 -484.48046875 458.390625 C-484.90066788 457.31794876 -485.320867 456.24527252 -485.75379944 455.14009094 C-490.70955579 442.49085197 -495.67932843 429.8471229 -500.6484375 417.203125 C-508.72059138 396.66184533 -516.78295426 376.11674584 -524.83886719 355.5690918 C-530.76870729 340.44447297 -536.70400722 325.32201627 -542.6484375 310.203125 C-544.82918923 312.38387673 -545.46305946 313.88914286 -546.58325195 316.73754883 C-547.15698547 318.18484375 -547.15698547 318.18484375 -547.74230957 319.66137695 C-548.1612146 320.73347412 -548.58011963 321.80557129 -549.01171875 322.91015625 C-549.46212524 324.0501709 -549.91253174 325.19018555 -550.37658691 326.36474609 C-551.37455783 328.89233531 -552.37060195 331.42059561 -553.36367798 333.95010376 C-554.99752074 338.11112069 -556.63904636 342.26908012 -558.28198242 346.42651367 C-558.86440502 347.90052405 -559.44681758 349.3745384 -560.02922058 350.84855652 C-560.32480551 351.59664267 -560.62039043 352.34472881 -560.92493248 353.11548424 C-561.85231072 355.46332707 -562.77900265 357.81143976 -563.70552063 360.15962219 C-571.19889165 379.14834097 -578.74588279 398.11572416 -586.2938652 417.08278656 C-587.4617038 420.0175507 -588.62933124 422.95239876 -589.79690552 425.88726807 C-601.73464497 455.8933633 -613.70100975 485.88797394 -625.69176865 515.87292099 C-626.89568913 518.88375172 -628.09931709 521.89469926 -629.30288696 524.90567017 C-631.17890324 529.59861272 -633.05587818 534.29117066 -634.93367195 538.98340225 C-635.62328685 540.7069205 -636.31262636 542.43054897 -637.00167656 544.15429306 C-637.93942195 546.49992108 -638.87824602 548.84511433 -639.81738281 551.19018555 C-640.09237515 551.87867993 -640.3673675 552.56717432 -640.65069294 553.27653217 C-642.53410387 557.97445774 -642.53410387 557.97445774 -643.6484375 560.203125 C-621.8684375 560.203125 -600.0884375 560.203125 -577.6484375 560.203125 C-577.6484375 624.223125 -577.6484375 688.243125 -577.6484375 754.203125 C-623.8484375 754.203125 -670.0484375 754.203125 -717.6484375 754.203125 C-717.9784375 755.853125 -718.3084375 757.503125 -718.6484375 759.203125 C-719.15236181 760.67824403 -719.69574277 762.14034479 -720.27328491 763.58822632 C-720.60901016 764.43590576 -720.94473541 765.28358521 -721.29063416 766.1569519 C-721.65927078 767.07501617 -722.02790741 767.99308044 -722.40771484 768.93896484 C-722.79674484 769.91758484 -723.18577484 770.89620483 -723.58659363 771.90447998 C-724.88173158 775.15933332 -726.18299983 778.41169847 -727.484375 781.6640625 C-728.40183964 783.96557282 -729.3189576 786.26722138 -730.23574829 788.56900024 C-732.17183344 793.42740604 -734.11057724 798.2847415 -736.05175781 803.14111328 C-738.47831561 809.21180983 -740.90018187 815.28436684 -743.32024193 821.35765648 C-745.68585921 827.29376105 -748.05376401 833.2289524 -750.421875 839.1640625 C-750.84586956 840.22712994 -751.26986412 841.29019737 -751.706707 842.38547897 C-761.27185842 866.35808808 -770.97482425 890.27366064 -780.6484375 914.203125 C-865.4584375 914.203125 -950.2684375 914.203125 -1037.6484375 914.203125 C-1037.6484375 896.97808045 -1037.6484375 896.97808045 -1034.16015625 889.4765625 C-1033.60535835 888.19438591 -1033.60535835 888.19438591 -1033.03935242 886.88630676 C-1031.82960804 884.10530048 -1030.58303171 881.34255583 -1029.3359375 878.578125 C-1028.46863074 876.60062857 -1027.60426734 874.62183892 -1026.74267578 872.6418457 C-1024.95250162 868.53400443 -1023.14988428 864.43197251 -1021.33837891 860.33349609 C-1017.5201206 851.66716162 -1013.8643033 842.93306168 -1010.20254517 834.19976807 C-1008.23137166 829.50358252 -1006.24850951 824.81234388 -1004.265625 820.12109375 C-1003.8781459 819.20404663 -1003.49066681 818.28699951 -1003.09144592 817.34216309 C-998.77877779 807.13904488 -994.4430031 796.94576885 -990.105896 786.75302124 C-984.43001478 773.41289173 -978.78300985 760.06075105 -973.1484375 746.703125 C-967.16889822 732.52770144 -961.17223178 718.35979977 -955.1484375 704.203125 C-949.16902397 690.14949316 -943.21196766 676.08658257 -937.2734375 662.015625 C-936.87868225 661.08029938 -936.483927 660.14497375 -936.07720947 659.18130493 C-933.26693236 652.52220117 -930.45758066 645.86270717 -927.6484375 639.203125 C-924.44073724 631.59869111 -921.23263152 623.99442864 -918.0234375 616.390625 C-917.43106293 614.98703232 -917.43106293 614.98703232 -916.82672119 613.55508423 C-910.94052104 599.61024168 -905.02966952 585.6760453 -899.10388184 571.74798584 C-893.473322 558.51245857 -887.86619894 545.26716735 -882.2734375 532.015625 C-881.87768524 531.07797302 -881.48193298 530.14032104 -881.07418823 529.17425537 C-877.47501441 520.64620559 -873.87731696 512.11753334 -870.28076172 503.58837891 C-867.92479799 498.00135567 -865.56822219 492.41459102 -863.2109375 486.828125 C-862.8208551 485.90367584 -862.43077271 484.97922668 -862.02886963 484.02676392 C-855.51259729 468.58750594 -848.95706665 453.16516218 -842.38946533 437.74768066 C-836.26449453 423.36783119 -830.16237066 408.97855311 -824.0859375 394.578125 C-823.69649963 393.6552066 -823.30706177 392.73228821 -822.90582275 391.78140259 C-820.54829218 386.19372677 -818.19166614 380.60566975 -815.83526611 375.01751709 C-812.23273051 366.47462591 -808.62863814 357.93239182 -805.0234375 349.390625 C-804.62824921 348.45426208 -804.23306091 347.51789917 -803.82589722 346.55316162 C-797.93997398 332.60895895 -792.02939657 318.67540376 -786.10388184 304.74798584 C-780.473322 291.51245857 -774.86619894 278.26716735 -769.2734375 265.015625 C-768.87768524 264.07797302 -768.48193298 263.14032104 -768.07418823 262.17425537 C-764.47501441 253.64620559 -760.87731696 245.11753334 -757.28076172 236.58837891 C-754.92479799 231.00135567 -752.56822219 225.41459102 -750.2109375 219.828125 C-749.8208551 218.90367584 -749.43077271 217.97922668 -749.02886963 217.02676392 C-742.51259729 201.58750594 -735.95706665 186.16516218 -729.38946533 170.74768066 C-723.26449453 156.36783119 -717.16237066 141.97855311 -711.0859375 127.578125 C-710.69649963 126.6552066 -710.30706177 125.73228821 -709.90582275 124.78140259 C-707.54829218 119.19372677 -705.19166614 113.60566975 -702.83526611 108.01751709 C-693.3523194 85.53008299 -683.86655268 63.04385017 -674.32672119 40.58047485 C-673.59337855 38.85366374 -672.86025827 37.12675817 -672.12738037 35.39974976 C-671.11568319 33.0161526 -670.1029369 30.63300411 -669.08984375 28.25 C-668.79901413 27.56450577 -668.50818451 26.87901154 -668.20854187 26.17274475 C-666.07403267 21.15728072 -663.86302013 16.18593592 -661.6484375 11.203125 C-582.1184375 11.203125 -502.5884375 11.203125 -420.6484375 11.203125 C-392.1484375 78.703125 -392.1484375 78.703125 -387.43359375 89.87109375 C-384.57544325 96.64091568 -381.71600459 103.41019165 -378.85523987 110.1789093 C-361.66336476 150.85603836 -361.66336476 150.85603836 -353.6484375 170.203125 C-352.9884375 170.203125 -352.3284375 170.203125 -351.6484375 170.203125 C-350.33980379 168.73244086 -349.1037519 167.19711182 -347.8984375 165.640625 C-343.44653873 160.06494596 -338.69404541 154.85955591 -333.78613281 149.68334961 C-330.86144446 146.59353091 -328.00558306 143.47431723 -325.23828125 140.2421875 C-321.52367258 135.96790699 -317.48678827 132.11171433 -313.3359375 128.265625 C-312.58465576 127.56542236 -311.83337402 126.86521973 -311.05932617 126.14379883 C-308.9262076 124.15937936 -306.78765086 122.18096842 -304.6484375 120.203125 C-303.71257813 119.32914062 -302.77671875 118.45515625 -301.8125 117.5546875 C-295.69133456 111.9215884 -289.19152747 106.81421911 -282.61279297 101.73486328 C-280.57854488 100.14862508 -278.56740629 98.53627078 -276.55859375 96.91796875 C-211.98831298 45.22493097 -129.92015513 13.78714544 -25.6484375 1.203125 C-24.85896729 1.11650604 -24.06949707 1.02988708 -23.25610352 0.94064331 C-15.50024376 0.14445472 -7.79249349 0.02608404 0 0 Z " fill="#248ABD" transform="translate(1037.6484375,304.796875)"/>
</svg>
