<svg xmlns="http://www.w3.org/2000/svg" width="1438" height="1438"><path d="m1037.648 304.797 4.225-.021c4.5-.02 9.001-.025 13.502-.026l2.32-.001c23.555-.007 46.902.32 70.305 3.251l4.064.488c87.005 10.638 171.347 45.747 236.354 105.176a211.594 211.594 0 0 0 4.291 3.8c5.893 5.055 11.377 10.474 16.853 15.974l2.749 2.736c5.106 5.114 10.007 10.322 14.689 15.826a2624.44 2624.44 0 0 0 2.922 3.352C1438 487.769 1438 487.769 1438 493a165.554 165.554 0 0 1-7.125 5.438c-1.485 1.093-2.97 2.188-4.453 3.285l-2.268 1.672c-3.052 2.274-6.046 4.617-9.029 6.98l-3.426 2.707-1.787 1.413c-9.778 7.7-19.634 15.301-29.506 22.88-4.148 3.191-8.276 6.41-12.406 9.625a4459.219 4459.219 0 0 1-25.055 19.344 4055.187 4055.187 0 0 0-21.291 16.483c-5.4 4.203-10.82 8.38-16.248 12.548-4.148 3.191-8.276 6.41-12.406 9.625a2943.697 2943.697 0 0 1-18.555 14.34 896.99 896.99 0 0 0-8.14 6.351l-2.471 1.94a1416.927 1416.927 0 0 0-4.832 3.812l-2.229 1.748-1.986 1.569C1253 636 1253 636 1250 637l-2.527-2.93-3.41-3.945-1.65-1.914c-8.132-9.4-16.501-18.48-25.288-27.274l-2.777-2.814c-14.629-14.66-31.296-27.014-49.348-37.123l-2.351-1.329c-49.421-27.682-110.411-34.712-165.038-19.44C968.488 548.804 940.993 562.858 919 584a517.569 517.569 0 0 1-4.063 3.5c-8.588 7.541-15.795 15.751-22.676 24.838a441.027 441.027 0 0 1-3.316 4.303C865.692 647.324 850.98 685.093 845 723l-.483 2.931C833.95 792.503 847.124 867.824 887 923c7.371 9.869 15.52 19.077 24 28l1.969 2.129c6.06 6.355 13.035 11.601 20.031 16.871l2.527 1.906c45.445 32.938 102.766 43.058 157.646 34.605 44.85-7.41 83.782-26.611 117.335-57.238 1.63-1.486 3.27-2.96 4.922-4.421 9.455-8.368 18.414-17.207 26.57-26.852a18226.954 18226.954 0 0 0 6.313-7.313l1.601-1.853 1.512-1.76 1.356-1.575c1.163-1.431 2.195-2.965 3.218-4.499 5.08 1.627 8.952 4.678 13.188 7.813l4.859 3.55 2.498 1.835c3.788 2.78 7.587 5.545 11.392 8.302l2.235 1.62c5.42 3.91 10.92 7.694 16.453 11.442a427.52 427.52 0 0 1 19.321 13.92c5.814 4.402 11.81 8.503 17.845 12.592 8.535 5.795 16.87 11.853 25.209 17.926 10.11 7.348 20.27 14.613 30.523 21.758 6.435 4.492 12.834 9.032 19.14 13.703 3.364 2.478 6.69 4.802 10.349 6.824 4.69 2.649 8.283 4.787 10.203 10.04.862 9.268-2.524 14.85-8.163 21.822A425.482 425.482 0 0 1 1426 1060a742.718 742.718 0 0 0-2.93 3.512 455.347 455.347 0 0 1-5.507 6.492c-2.314 2.705-4.538 5.459-6.75 8.246-9.799 11.993-20.894 22.916-31.813 33.875l-2.642 2.656c-4.958 4.946-10.025 9.68-15.358 14.219-1.01.877-2.019 1.755-3.027 2.633C1289.157 1190.565 1206.22 1222.48 1117 1234l-2.166.282C1023.777 1245.933 929.34 1232.243 846 1194l-2.765-1.253c-38.706-17.595-75.224-41.69-106.633-70.38a550.585 550.585 0 0 0-4.896-4.404c-6.346-5.636-12.406-11.512-18.394-17.525l-2.72-2.71c-5.073-5.08-9.95-10.252-14.592-15.728l-1.456-1.693c-1.354-1.576-2.7-3.16-4.044-4.745l-1.316-1.54-1.34-1.58-1.333-1.53C685 1069 685 1069 683.706 1066.734c-2.405-3.899-4.227-6.33-8.753-7.567-3.885-.316-7.717-.347-11.609-.28a908.26 908.26 0 0 1-4.538-.034 750.234 750.234 0 0 0-12.113.033c-3.794.026-7.587.003-11.382-.016-11.083-.026-22.166.025-33.249.068L527 1059V865h65c-4.12-13.294-4.12-13.294-8.941-26.27l-1.09-2.736c-.771-1.932-1.545-3.863-2.32-5.793-1.688-4.2-3.362-8.404-5.037-12.609l-2.645-6.63c-4.642-11.635-9.214-23.297-13.78-34.962l-5.019-12.813-1.273-3.25c-4.956-12.65-9.926-25.293-14.895-37.937a83756.668 83756.668 0 0 1-24.19-61.634A50513.216 50513.216 0 0 0 495 615c-2.18 2.18-2.815 3.686-3.935 6.534l-1.159 2.924-1.27 3.249-1.364 3.455a4213.62 4213.62 0 0 0-2.987 7.585 6133.715 6133.715 0 0 1-4.919 12.476l-1.747 4.422-.895 2.267-2.781 7.044c-7.493 18.99-15.04 37.957-22.588 56.924l-3.503 8.804a54809.623 54809.623 0 0 1-39.506 99.019 40027.867 40027.867 0 0 1-7.7 19.248c-.937 2.346-1.876 4.691-2.815 7.036l-.833 2.086c-1.884 4.698-1.884 4.698-2.998 6.927h66v194H320l-1 5a92.884 92.884 0 0 1-1.625 4.385l-1.017 2.569-1.117 2.782-1.18 2.965a5481.854 5481.854 0 0 1-3.897 9.76c-.917 2.301-1.835 4.603-2.751 6.905-1.936 4.858-3.875 9.716-5.816 14.572-2.427 6.07-4.849 12.143-7.269 18.217-2.365 5.936-4.733 11.87-7.101 17.806l-1.285 3.221c-9.565 23.973-19.268 47.889-28.942 71.818H0c0-17.225 0-17.225 3.488-24.727l1.121-2.59c1.21-2.78 2.456-5.544 3.704-8.308.867-1.977 1.731-3.956 2.593-5.936 1.79-4.108 3.593-8.21 5.404-12.309 3.818-8.666 7.474-17.4 11.136-26.133 1.971-4.697 3.954-9.388 5.937-14.079l1.174-2.779c4.313-10.203 8.648-20.396 12.986-30.59 5.675-13.34 11.322-26.691 16.957-40.049 5.98-14.175 11.976-28.343 18-42.5 5.98-14.054 11.936-28.117 17.875-42.188l1.196-2.834L110 944l9.625-22.813 1.197-2.835a15984.653 15984.653 0 0 1 17.723-41.807 15118.72 15118.72 0 0 0 16.83-39.732l1.2-2.842 10.793-25.586a76932.38 76932.38 0 0 1 7.07-16.76l1.182-2.801c6.516-15.44 13.071-30.862 19.639-46.28 6.125-14.38 12.227-28.769 18.304-43.169l1.18-2.797a89153.573 89153.573 0 0 1 17.882-42.39l1.198-2.838a15981.584 15981.584 0 0 1 17.722-41.805 15118.72 15118.72 0 0 0 16.83-39.732l1.2-2.842 10.793-25.586a76932.38 76932.38 0 0 1 7.07-16.76l1.182-2.801c6.516-15.44 13.071-30.862 19.639-46.28 6.125-14.38 12.227-28.769 18.303-43.169a89927.775 89927.775 0 0 0 8.25-19.56c9.484-22.488 18.97-44.974 28.51-67.438l2.2-5.18c1.01-2.384 2.024-4.767 3.037-7.15l.88-2.077c2.135-5.016 4.346-9.987 6.561-14.97h241l33.215 78.668c2.858 6.77 5.717 13.54 8.578 20.308C675.985 455.653 675.985 455.653 684 475h2c1.309-1.47 2.545-3.006 3.75-4.563 4.452-5.575 9.204-10.78 14.112-15.957 2.925-3.09 5.78-6.209 8.548-9.44 3.715-4.275 7.752-8.131 11.903-11.978l2.276-2.121A2840 2840 0 0 1 733 425l2.836-2.648c6.121-5.634 12.62-10.74 19.2-15.82a487.503 487.503 0 0 0 6.054-4.817C825.66 350.022 907.728 318.584 1012 306l2.392-.262c7.756-.797 15.464-.915 23.256-.941z" fill="#248ABD"/></svg>