<?xml version="1.0" standalone="no"?>
<!DOCTYPE svg PUBLIC "-//W3C//DTD SVG 20010904//EN"
 "http://www.w3.org/TR/2001/REC-SVG-20010904/DTD/svg10.dtd">
<svg version="1.0" xmlns="http://www.w3.org/2000/svg"
 width="1438.000000pt" height="1438.000000pt" viewBox="0 0 1438.000000 1438.000000"
 preserveAspectRatio="xMidYMid meet">
<metadata>
Created by potrace 1.16, written by Peter Selinger 2001-2019
</metadata>
<g transform="translate(0.000000,1438.000000) scale(0.100000,-0.100000)"
fill="#000000" stroke="none">
<path d="M10145 11319 c-705 -74 -1217 -214 -1761 -483 -427 -211 -766 -445
-1122 -775 -94 -87 -294 -302 -382 -410 l-35 -43 -340 806 -340 806 -1201 0
-1202 0 -20 -47 c-11 -27 -858 -2027 -1881 -4445 l-1861 -4398 0 -70 0 -70
1283 0 1283 0 320 800 319 800 698 0 697 0 0 970 0 970 -331 0 c-183 0 -329 4
-327 9 1 4 228 573 503 1263 l499 1255 132 -336 c73 -185 290 -738 483 -1229
193 -492 353 -909 357 -928 l6 -34 -326 0 -326 0 0 -970 0 -970 754 0 754 0
98 -122 c132 -164 467 -499 632 -630 716 -571 1513 -899 2440 -1004 218 -25
733 -30 986 -10 869 69 1572 296 2202 712 406 267 847 686 1172 1111 l72 96 0
71 0 71 -900 640 c-496 352 -904 641 -908 642 -4 1 -43 -42 -87 -95 -104 -126
-367 -389 -475 -475 -364 -291 -702 -437 -1150 -498 -141 -19 -510 -17 -634 5
-542 92 -977 351 -1306 778 -252 326 -422 750 -485 1209 -22 162 -30 497 -16
649 82 867 534 1574 1220 1909 320 156 634 221 996 208 251 -10 496 -56 702
-133 192 -71 444 -215 618 -354 112 -90 350 -325 457 -452 60 -70 95 -105 103
-100 28 16 1864 1437 1864 1444 1 3 -31 48 -71 100 -803 1045 -1804 1601
-3138 1744 -172 19 -886 28 -1025 13z"/>
</g>
</svg>
