<?xml version="1.0" encoding="UTF-8"?>
<svg version="1.1" xmlns="http://www.w3.org/2000/svg" width="220" height="220">
<path d="M0 0 C1.11890625 -0.03738281 2.2378125 -0.07476563 3.390625 -0.11328125 C11.32951611 0.89292704 16.73014437 8.00861637 22.10424805 13.40795898 C23.02689453 14.32710083 23.94954102 15.24624268 24.90014648 16.1932373 C27.41905575 18.70306529 29.93164135 21.21913445 32.44283271 23.7366817 C35.07695463 26.37588422 37.71597225 29.01018421 40.35420227 31.64527893 C44.78181153 36.06925518 49.20519974 40.49741905 53.6262207 44.92797852 C58.73258111 50.04522891 63.84611547 55.15522561 68.96342248 60.26152748 C73.3638485 64.6528697 77.76035524 69.04810724 82.15362579 73.44660813 C84.77455151 76.07064667 87.39679741 78.69332758 90.02258873 81.31249809 C92.94879403 84.23183906 95.8667379 87.15930447 98.78393555 90.08764648 C99.65204361 90.95170609 100.52015167 91.81576569 101.41456604 92.70600891 C102.20936371 93.50644623 103.00416138 94.30688354 103.82304382 95.13157654 C104.5130482 95.82233497 105.20305258 96.5130934 105.91396618 97.2247839 C109.69205162 101.52076675 111.22397281 104.89283183 111.375 110.625 C111.42914063 111.69363281 111.48328125 112.76226562 111.5390625 113.86328125 C109.64370093 122.14845087 100.31780849 128.88819255 94.46582031 134.72607422 C93.11089226 136.08363075 93.11089226 136.08363075 91.72859192 137.46861267 C89.27459082 139.92713244 86.81748606 142.38252731 84.35963154 144.83719397 C81.77973226 147.41454452 79.20229283 149.99435322 76.62445068 152.57376099 C72.30237263 156.8976518 67.9782047 161.21944416 63.65283203 165.54003906 C58.65382126 170.53359169 53.65844624 175.53075971 48.66491055 180.52978694 C44.36765997 184.83157363 40.06846622 189.13141103 35.76763797 193.42962086 C33.20287334 195.99282767 30.63878646 198.55670264 28.07645416 201.12234116 C25.22602494 203.9761924 22.37153179 206.82594445 19.51660156 209.67529297 C18.66876602 210.52515274 17.82093048 211.37501251 16.94740295 212.25062561 C16.17087875 213.02432999 15.39435455 213.79803436 14.59429932 214.59518433 C13.58336401 215.60555409 13.58336401 215.60555409 12.55200577 216.63633537 C8.7769935 220.1477237 6.42172805 220.60767713 1.375 220.625 C0.25351563 220.64175781 -0.86796875 220.65851563 -2.0234375 220.67578125 C-6.95471415 220.12056487 -9.41131004 218.30986103 -12.5625 214.5625 C-12.97859937 214.03516455 -13.39469873 213.50782909 -13.82340717 212.96451378 C-15.38680375 211.15407941 -17.06170352 209.67454366 -18.88798523 208.13027954 C-23.3618888 204.2637777 -27.55112957 200.15918405 -31.72973633 195.97802734 C-32.53563202 195.17549026 -33.34152771 194.37295319 -34.17184448 193.5460968 C-36.81120493 190.91616719 -39.44684282 188.28254701 -42.08203125 185.6484375 C-43.92421801 183.8094667 -45.76647889 181.97057015 -47.60881042 180.13174438 C-51.45789956 176.28902335 -55.30455876 172.44388098 -59.15014648 168.59765625 C-63.58886169 164.15833851 -68.03314617 159.72465045 -72.48002988 155.29351652 C-76.77300205 151.01520468 -81.06041963 146.73137109 -85.34576988 142.44542313 C-87.16423929 140.62813384 -88.98433066 138.81246606 -90.80607033 136.99845505 C-93.34789417 134.46641487 -95.8833203 131.92813405 -98.41723633 129.38818359 C-99.16999344 128.64104599 -99.92275055 127.89390839 -100.69831848 127.12413025 C-106.01108318 121.77911324 -109.66831474 117.84464514 -109.875 110 C-109.92914063 108.93136719 -109.98328125 107.86273438 -110.0390625 106.76171875 C-107.78776471 96.9206497 -95.0179555 87.9548177 -88.00390625 80.96875 C-86.6236363 79.59034813 -85.2435892 78.21172309 -83.86375427 76.83288574 C-80.2542193 73.22714527 -76.64169001 69.62441967 -73.02850342 66.02233887 C-69.33292473 62.33704066 -65.64022095 58.64886419 -61.94726562 54.9609375 C-54.71763572 47.74199074 -47.48483544 40.52622951 -40.25 33.3125 C-34.64784411 35.95192189 -30.53059779 40.31683734 -26.12158203 44.57592773 C-25.0465301 45.60290823 -23.95827527 46.61625498 -22.85693359 47.61499023 C-13.67941012 55.9480493 -13.67941012 55.9480493 -12.6081543 61.84667969 C-12.65234375 65.34765625 -12.65234375 65.34765625 -13.01928711 68.54321289 C-13.5007905 71.5567411 -13.5007905 71.5567411 -11.5625 74.9375 C-9.40908106 77.41602838 -9.40908106 77.41602838 -6.64491272 78.58691406 C-4.25 80.3125 -4.25 80.3125 -3.62181091 83.00683594 C-3.62084915 84.09254883 -3.61988739 85.17826172 -3.61889648 86.296875 C-3.60636337 87.52825195 -3.59383026 88.75962891 -3.58091736 90.02832031 C-3.59318535 91.3730576 -3.60660532 92.7177848 -3.62109375 94.0625 C-3.62026513 95.44108263 -3.61780599 96.81966517 -3.61378479 98.19824219 C-3.61092606 101.08689122 -3.6256331 103.97476518 -3.65307617 106.86328125 C-3.68716099 110.56601197 -3.68114255 114.26735674 -3.6624136 117.97015381 C-3.65184475 120.81668652 -3.66077997 123.6628967 -3.67579842 126.50939941 C-3.68098167 127.87454267 -3.68049663 129.23971958 -3.67425346 130.6048584 C-3.66880385 132.51265825 -3.69201908 134.42047512 -3.71655273 136.328125 C-3.72275131 137.41383789 -3.72894989 138.49955078 -3.7353363 139.61816406 C-4.25 142.3125 -4.25 142.3125 -6.15834045 144.18652344 C-8.25 145.3125 -8.25 145.3125 -10.25 145.3125 C-10.7140625 146.488125 -10.7140625 146.488125 -11.1875 147.6875 C-12.25 150.3125 -12.25 150.3125 -13.25 152.3125 C-13.79978069 157.3236158 -13.81154513 161.20946493 -11.5 165.75 C-7.43139745 170.38368623 -4.71626626 171.88917635 1.4375 172.375 C5.11428897 172.27562733 7.60760022 171.16097046 10.75 169.3125 C15.29694977 164.40658051 16.04928277 161.30572502 15.96484375 154.78515625 C15.6828686 151.53987865 14.86144574 149.78798811 12.75 147.3125 C11.47398674 146.44688446 11.47398674 146.44688446 10.17219543 145.56378174 C7.75 143.3125 7.75 143.3125 7.14872742 140.47772217 C7.15983047 139.38518127 7.17093353 138.29264038 7.18237305 137.16699219 C7.1827507 135.92600769 7.18312836 134.68502319 7.18351746 133.40643311 C7.20904863 132.05740349 7.23512858 130.70838416 7.26171875 129.359375 C7.27104869 127.97504962 7.27816396 126.59070768 7.28315735 125.20635986 C7.3022137 121.56943882 7.35130021 117.93352226 7.40667725 114.29699707 C7.45790066 110.58355294 7.48067783 106.86994588 7.50585938 103.15625 C7.55942244 95.87454293 7.64471603 88.59366241 7.75 81.3125 C13.45470602 84.0190617 17.50106148 88.45218424 22 92.8125 C22.93585938 93.67359375 23.87171875 94.5346875 24.8359375 95.421875 C31.45365332 101.86594813 31.45365332 101.86594813 32.31347656 106.06298828 C32.28125 108.7265625 32.28125 108.7265625 31.97070312 111.11572266 C31.51053393 115.69603507 33.79869454 119.13922327 36.625 122.625 C41.11749045 126.19256595 45.06651206 126.81105157 50.75 126.3125 C56.08739473 124.32405883 59.20333824 121.40582352 61.75 116.3125 C62.41186887 110.98499815 62.1492655 106.36555847 59.13671875 101.8203125 C56.49022865 98.94272045 53.49487825 97.36450643 49.75 96.3125 C47.47233299 96.25539435 47.47233299 96.25539435 45.1875 96.4375 C41.50640343 96.61490224 39.82893767 96.06847141 37 93.6875 C34.0090695 90.76516882 31.4252825 87.52283901 28.75 84.3125 C27.60153776 83.29164468 26.43378078 82.29218065 25.25 81.3125 C17.02183921 74.30598754 17.02183921 74.30598754 16.36328125 69.4765625 C16.24634078 67.37163409 16.13952463 65.26611818 16.04296875 63.16015625 C15.64408512 59.2830074 14.37511381 57.1563733 11.75 54.3125 C7.99291461 51.60086793 5.83130745 51.14022304 1.265625 51.41015625 C-7.82543512 50.85415794 -12.69334321 44.05346937 -18.5 37.75 C-19.64711457 36.54762037 -20.79683719 35.34772323 -21.94921875 34.15039062 C-24.74706755 31.23221116 -27.50738251 28.28260838 -30.25 25.3125 C-28.71610588 21.67523274 -26.53469205 19.35267867 -23.75 16.58203125 C-22.4196875 15.25461914 -22.4196875 15.25461914 -21.0625 13.90039062 C-20.134375 12.98451172 -19.20625 12.06863281 -18.25 11.125 C-17.321875 10.19751953 -16.39375 9.27003906 -15.4375 8.31445312 C-7.22606817 0.15672979 -7.22606817 0.15672979 0 0 Z " fill="#F05033" transform="translate(109.25,-0.3125)"/>
</svg>
