<?xml version="1.0" encoding="UTF-8"?>
<svg version="1.1" xmlns="http://www.w3.org/2000/svg" width="512" height="512">
<path d="M0 0 C151.47 0 302.94 0 459 0 C459 5.81483293 458.90023509 11.34496406 458.33124638 17.09004593 C458.22279567 18.23796297 458.22279567 18.23796297 458.11215404 19.40907025 C457.87023946 21.95860304 457.62226307 24.50750812 457.37428284 27.05645752 C457.19726584 28.90853743 457.02062319 30.76065316 456.84432167 32.61280131 C456.35983257 37.69109359 455.8700156 42.76885988 455.37931049 47.84655476 C454.85063998 53.32682057 454.32690758 58.80755856 453.80255127 64.28823853 C452.77507437 75.01932956 451.74301784 85.74997543 450.70938892 96.48047546 C449.50623196 108.97254925 448.30747693 121.46504426 447.10887336 133.95755562 C444.90598933 156.91546941 442.69852624 179.8729411 440.48896332 202.8302128 C438.47166244 223.79013629 436.45778645 244.75038599 434.44702148 265.7109375 C434.31785447 267.05738447 434.1886874 268.40383143 434.05952025 269.75027838 C433.99566259 270.41593578 433.93180493 271.08159317 433.86601218 271.767422 C433.54456283 275.11821961 433.22310659 278.46901655 432.9016428 281.81981277 C432.83822376 282.48086846 432.77480471 283.14192414 432.70946388 283.82301181 C431.02905741 301.33846718 429.34617149 318.8536843 427.66250557 336.36882663 C427.48303113 338.23589673 427.48303113 338.23589673 427.29993094 340.14068542 C427.05961006 342.64073508 426.81928576 345.1407844 426.57895799 347.64083339 C425.7415206 356.3533633 424.90515618 365.06599584 424.06915474 373.77866364 C423.05091218 384.39003543 422.03076468 395.00122212 421.00820035 405.61217836 C420.48629574 411.0283004 419.96521402 416.44449824 419.44634819 421.86091232 C418.97172183 426.81522929 418.49472943 431.76931245 418.0158143 436.72321662 C417.84262551 438.51903526 417.67031094 440.31493846 417.49894065 442.11093155 C417.26652621 444.54529589 417.03096633 446.97933581 416.79459476 449.41331863 C416.695055 450.46787723 416.695055 450.46787723 416.59350434 451.54374003 C416.2463847 455.08154667 415.77159196 458.52901466 415 462 C395.67596571 467.74857438 376.24974794 473.1024611 356.8053894 478.42543793 C348.86450234 480.59933104 340.92428592 482.77566965 332.984375 484.953125 C332.0845993 485.1997929 331.18482361 485.4464608 330.25778198 485.70060349 C317.43698551 489.21643935 304.62754125 492.7711322 291.82628632 496.35744095 C286.57488598 497.82773309 281.32206519 499.29294595 276.06935501 500.75855064 C271.06827005 502.15478615 266.06981409 503.55999303 261.07304001 504.97157288 C257.97473606 505.84451901 254.87409475 506.70891788 251.77275848 507.57102203 C250.34266712 507.97049144 248.91357199 508.37354829 247.48560333 508.78054047 C245.53150992 509.3370453 243.57343845 509.87952375 241.61523438 510.42138672 C240.52416382 510.72809296 239.43309326 511.03479919 238.30895996 511.35079956 C231.3308778 512.71986236 225.56632848 511.93185226 218.84008789 510.05419922 C218.06034985 509.8452622 217.2806118 509.63632519 216.47724533 509.42105675 C213.889705 508.72511792 211.30629876 508.01494785 208.72265625 507.3046875 C206.86910643 506.80306416 205.01531495 506.30233309 203.16130066 505.8024292 C198.16332377 504.45212399 193.16878677 503.08948403 188.17481995 501.7244339 C182.96772476 500.30328079 177.75764298 498.89316387 172.54785156 497.48193359 C163.96206436 495.15476496 155.37814131 492.82083458 146.79541016 490.48242188 C135.5382118 487.41573076 124.27631277 484.36665389 113.01261711 481.32392502 C105.63772958 479.33127585 98.26375768 477.33524005 90.88975143 475.33933258 C88.2575802 474.62705125 85.62527049 473.91528337 82.99295044 473.20355225 C78.86696522 472.08762635 74.74175693 470.96887052 70.61712074 469.84796906 C69.11879087 469.44120901 67.62022247 469.03532636 66.12138939 468.6304245 C58.67458366 466.61811827 51.28652473 464.54234823 44 462 C42.25241517 451.66031583 41.1557851 441.31604555 40.16500854 430.88253784 C39.99035422 429.07246491 39.81537631 427.26242319 39.64010537 425.45240986 C39.16241145 420.50944655 38.68933496 415.56605085 38.21706319 410.62256694 C37.70579274 405.2794011 37.19022448 399.93664969 36.67523193 394.59384155 C35.66830496 384.14000527 34.66544088 373.68578309 33.66411029 363.23140942 C32.85015827 354.73388932 32.03485656 346.23649974 31.21860123 337.73920059 C31.10230703 336.52852969 30.98601284 335.31785879 30.86619458 334.07050089 C30.62992502 331.61085774 30.39365408 329.15121473 30.15738179 326.69157185 C27.94375175 303.6452038 25.73492336 280.59837742 23.52758874 257.55140568 C21.50853861 236.47185367 19.4836161 215.39287063 17.45590185 194.31415044 C15.37263126 172.65737959 13.29322565 151.00024088 11.21804345 129.34269345 C10.05340972 117.18873412 8.8872638 105.03492452 7.71709824 92.88149643 C6.72132791 82.53887198 5.72922511 72.19590372 4.74184237 61.85247503 C4.23814313 56.5769705 3.73277408 51.30164028 3.2228508 46.0267334 C2.75581705 41.19502851 2.29363914 36.36288426 1.83527304 31.53034963 C1.66891801 29.78542658 1.50081199 28.04066936 1.33074509 26.29610418 C1.09909295 23.91704386 0.87395707 21.5374488 0.65034294 19.15762138 C0.58353213 18.48753125 0.51672131 17.81744111 0.44788593 17.12704521 C-0.08322269 11.35047716 0 5.88436079 0 0 Z " fill="#FC982C" transform="translate(27,0)"/>
<path d="M0 0 C93.72 0 187.44 0 284 0 C284 25.41 284 50.82 284 77 C219.32 77 154.64 77 88 77 C88.99 84.92 89.98 92.84 91 101 C91 104.96 91 108.92 91 113 C154.36 113 217.72 113 283 113 C283 120.7662677 282.87889669 128.27529082 282.25317383 135.97924805 C282.17333252 137.00917248 282.09349121 138.03909691 282.01123047 139.10023117 C281.74754216 142.48775246 281.47730271 145.87471689 281.20703125 149.26171875 C281.018274 151.67070805 280.82994403 154.07973085 280.64201355 156.48878479 C280.14068728 162.9012183 279.63382682 169.31320293 279.12585449 175.72511292 C278.60343538 182.33113512 278.08601024 188.93754804 277.56835938 195.54394531 C276.9520115 203.40686747 276.33532312 211.26976168 275.71633911 219.13247681 C274.56953378 233.70299706 273.43406376 248.27427325 272.32421875 262.84765625 C272.26450205 263.63084921 272.20478535 264.41404217 272.14325905 265.22096825 C271.65994562 271.55980028 271.17754188 277.89869915 270.69888306 284.23788452 C270.42586937 287.85142284 270.15064291 291.46478646 269.875 295.078125 C269.79936325 296.09032608 269.7237265 297.10252716 269.64579773 298.145401 C269.57448135 299.07613937 269.50316498 300.00687775 269.4296875 300.96582031 C269.34050049 302.14643036 269.34050049 302.14643036 269.24951172 303.35089111 C268.91408439 306.91218088 268.45550088 310.45206417 268 314 C258.35607503 316.80922212 248.71204588 319.61808634 239.0678997 322.42654896 C234.58493311 323.73204031 230.10199655 325.03763454 225.61914062 326.34350586 C224.76071438 326.5935544 223.90228813 326.84360294 223.01784897 327.10122871 C221.2840226 327.60628295 219.55020968 328.11138337 217.81641006 328.61652946 C213.46443562 329.88424821 209.11202105 331.1504208 204.75872803 332.41360474 C196.78190847 334.72904134 188.80770199 337.05177873 180.84531212 339.41644382 C177.34054294 340.4562982 173.83372525 341.48913388 170.32663345 342.52112389 C168.67387388 343.00949919 167.022098 343.50121767 165.37139511 343.99650002 C163.09134848 344.68033599 160.8081437 345.35246913 158.52392578 346.0222168 C157.86189777 346.22410551 157.19986977 346.42599422 156.5177803 346.63400078 C150.5398744 348.3639101 145.1605216 348.82042666 139.375 346.375 C133.93487109 344.25731571 128.4281541 342.63403937 122.8125 341.0625 C115.10205191 338.89557357 107.43836111 336.62969991 99.8046875 334.20703125 C96.62947252 333.19969919 93.44919923 332.21107978 90.26611328 331.22900391 C84.30391453 329.38565478 78.37607708 327.4620186 72.46508789 325.46020508 C63.72622245 322.50274459 54.96758859 319.74639516 46.06958008 317.30493164 C36.95255708 314.78243889 28.048958 311.85756568 19 309 C19 281.94 19 254.88 19 227 C45.4 227 71.8 227 99 227 C99 235.25 99 243.5 99 252 C102.3 252.66 105.6 253.32 109 254 C111.55465676 254.72662393 114.09770329 255.49578412 116.625 256.3125 C117.29595703 256.52616211 117.96691406 256.73982422 118.65820312 256.95996094 C121.49406821 257.86348074 124.32553524 258.78011899 127.15527344 259.70263672 C128.58097032 260.16674931 130.00756166 260.62812375 131.43505859 261.08666992 C133.38571102 261.71328646 135.33357516 262.34856379 137.28125 262.984375 C145.7880524 265.30766137 150.8891097 264.90430785 159.1171875 262.03515625 C160.0555545 261.72299667 160.99392151 261.4108371 161.96072388 261.08921814 C164.93756777 260.09566041 167.90624369 259.0799396 170.875 258.0625 C173.86659283 257.05337764 176.85967375 256.04883097 179.85354614 255.04649353 C181.71156575 254.42268954 183.5679709 253.79405227 185.4225769 253.16017151 C186.67495651 252.73489418 186.67495651 252.73489418 187.95263672 252.30102539 C188.68795624 252.04930069 189.42327576 251.79757599 190.18087769 251.53822327 C192 251 192 251 194 251 C193.98912354 250.21415527 193.97824707 249.42831055 193.96704102 248.61865234 C193.89545049 239.1018846 194.27815753 229.64804186 194.79956055 220.14794922 C194.93843016 217.60798707 195.07017671 215.06772297 195.20117188 212.52734375 C195.28864369 210.8853943 195.37651983 209.24346633 195.46484375 207.6015625 C195.50343002 206.85556793 195.5420163 206.10957336 195.58177185 205.3409729 C195.62173782 204.62597626 195.6617038 203.91097961 195.70288086 203.17431641 C195.73619003 202.55924225 195.76949921 201.94416809 195.80381775 201.31045532 C196.09654423 197.8629902 196.57085587 194.43315305 197 191 C138.59 191 80.18 191 20 191 C17.75046621 177.50279728 17.75046621 177.50279728 17.2097168 172.00195312 C17.08566467 170.76171387 16.96161255 169.52147461 16.83380127 168.24365234 C16.70688904 166.93605957 16.57997681 165.6284668 16.44921875 164.28125 C16.30931746 162.87251697 16.16898679 161.46382652 16.02825928 160.05517578 C15.73146533 157.07904816 15.43674178 154.10272682 15.14376831 151.1262207 C14.37209649 143.29141899 13.58546328 135.45811467 12.796875 127.625 C12.71891127 126.84974472 12.64094753 126.07448944 12.56062126 125.27574158 C11.2912078 112.67104512 9.91569179 100.08202978 8.4375 87.5 C6.39602104 70.0701455 4.61330303 52.61759893 2.89360428 35.15359497 C2.6889073 33.07677825 2.48331706 31.00005152 2.27755737 28.92333984 C1.89364307 25.04429812 1.51467803 21.16478302 1.13671875 17.28515625 C1.0213678 16.11650528 0.90601685 14.94785431 0.78717041 13.74378967 C0.68297791 12.66310715 0.5787854 11.58242462 0.47143555 10.46899414 C0.37992722 9.52915176 0.28841888 8.58930939 0.19413757 7.62098694 C0.00642755 5.08677622 0 2.54115309 0 0 Z " fill="#DEEBF0" transform="translate(110,82)"/>
<path d="M0 0 C75.24 0 150.48 0 228 0 C228 5.81483293 227.90023509 11.34496406 227.33124638 17.09004593 C227.22279567 18.23796297 227.22279567 18.23796297 227.11215404 19.40907025 C226.87023946 21.95860304 226.62226307 24.50750812 226.37428284 27.05645752 C226.19726584 28.90853743 226.02062319 30.76065316 225.84432167 32.61280131 C225.35983257 37.69109359 224.8700156 42.76885988 224.37931049 47.84655476 C223.85063998 53.32682057 223.32690758 58.80755856 222.80255127 64.28823853 C221.77507437 75.01932956 220.74301784 85.74997543 219.70938892 96.48047546 C218.50623196 108.97254925 217.30747693 121.46504426 216.10887336 133.95755562 C213.90598933 156.91546941 211.69852624 179.8729411 209.48896332 202.8302128 C207.47166244 223.79013629 205.45778645 244.75038599 203.44702148 265.7109375 C203.31785447 267.05738447 203.1886874 268.40383143 203.05952025 269.75027838 C202.99566259 270.41593578 202.93180493 271.08159317 202.86601218 271.767422 C202.54456283 275.11821961 202.22310659 278.46901655 201.9016428 281.81981277 C201.83822376 282.48086846 201.77480471 283.14192414 201.70946388 283.82301181 C200.02905741 301.33846718 198.34617149 318.8536843 196.66250557 336.36882663 C196.48303113 338.23589673 196.48303113 338.23589673 196.29993094 340.14068542 C196.05961006 342.64073508 195.81928576 345.1407844 195.57895799 347.64083339 C194.7415206 356.3533633 193.90515618 365.06599584 193.06915474 373.77866364 C192.05091218 384.39003543 191.03076468 395.00122212 190.00820035 405.61217836 C189.48629574 411.0283004 188.96521402 416.44449824 188.44634819 421.86091232 C187.97172183 426.81522929 187.49472943 431.76931245 187.0158143 436.72321662 C186.84262551 438.51903526 186.67031094 440.31493846 186.49894065 442.11093155 C186.26652621 444.54529589 186.03096633 446.97933581 185.79459476 449.41331863 C185.695055 450.46787723 185.695055 450.46787723 185.59350434 451.54374003 C185.2463847 455.08154667 184.77159196 458.52901466 184 462 C164.67568278 467.74865855 145.24905781 473.10181773 125.80458069 478.42543793 C118.77422752 480.35067304 111.74479919 482.2792844 104.71541595 484.2080574 C102.90192521 484.70565085 101.08841297 485.20316594 99.27487946 485.70060349 C86.41130645 489.22949859 73.55470745 492.78279941 60.7037735 496.35744095 C58.02749565 497.10172831 55.35103296 497.84534694 52.67449951 498.5887146 C51.80693653 498.8296818 50.93937355 499.07064899 50.04552078 499.31891823 C48.31771971 499.79881377 46.58991367 500.27869143 44.86210251 500.75855064 C39.82177834 502.15887388 34.7827339 503.5636972 29.74451447 504.97157288 C26.62830462 505.8412306 23.51094215 506.70669686 20.39324951 507.57102203 C18.94921064 507.97234013 17.50567443 508.37547195 16.06268311 508.78054047 C14.0968138 509.33219384 12.12901969 509.87697433 10.16113281 510.42138672 C9.06117981 510.72809296 7.96122681 511.03479919 6.82794189 511.35079956 C4 512 4 512 0 512 C0 484.94 0 457.88 0 430 C12.808125 426.24625 25.61625 422.4925 38.8125 418.625 C42.77483643 417.46307129 46.73717285 416.30114258 50.81958008 415.10400391 C67.10269085 410.33237701 83.38867294 405.56973688 99.69507408 400.87821579 C101.22655882 400.43709224 102.75766528 399.99465306 104.28837013 399.55083084 C106.38085265 398.9445634 108.47472767 398.34338206 110.5690918 397.74365234 C112.33267281 397.23576675 112.33267281 397.23576675 114.13188171 396.71762085 C117 396 117 396 120 396 C120.03593262 394.95610107 120.07186523 393.91220215 120.10888672 392.83666992 C120.83737511 374.2173786 122.43290864 355.65497144 123.90557861 337.08343506 C124.25415907 332.68143114 124.59965101 328.27918727 124.9453125 323.87695312 C125.96330885 310.91795046 126.98167734 297.95897703 128 285 C130.31 255.3 132.62 225.6 135 195 C71.64 195 8.28 195 -57 195 C-60 164 -60 164 -60 159 C4.68 159 69.36 159 136 159 C136 133.59 136 108.18 136 82 C91.12 82 46.24 82 0 82 C0 54.94 0 27.88 0 0 Z " fill="#F9502E" transform="translate(258,0)"/>
<path d="M0 0 C93.72 0 187.44 0 284 0 C284 25.41 284 50.82 284 77 C219.32 77 154.64 77 88 77 C88.99 84.92 89.98 92.84 91 101 C91.495 106.94 91.495 106.94 92 113 C110.48 113.33 128.96 113.66 148 114 C148 139.41 148 164.82 148 191 C105.76 191 63.52 191 20 191 C17.75046621 177.50279728 17.75046621 177.50279728 17.2097168 172.00195312 C17.08566467 170.76171387 16.96161255 169.52147461 16.83380127 168.24365234 C16.70688904 166.93605957 16.57997681 165.6284668 16.44921875 164.28125 C16.30931746 162.87251697 16.16898679 161.46382652 16.02825928 160.05517578 C15.73146533 157.07904816 15.43674178 154.10272682 15.14376831 151.1262207 C14.37209649 143.29141899 13.58546328 135.45811467 12.796875 127.625 C12.71891127 126.84974472 12.64094753 126.07448944 12.56062126 125.27574158 C11.2912078 112.67104512 9.91569179 100.08202978 8.4375 87.5 C6.39602104 70.0701455 4.61330303 52.61759893 2.89360428 35.15359497 C2.6889073 33.07677825 2.48331706 31.00005152 2.27755737 28.92333984 C1.89364307 25.04429812 1.51467803 21.16478302 1.13671875 17.28515625 C1.0213678 16.11650528 0.90601685 14.94785431 0.78717041 13.74378967 C0.68297791 12.66310715 0.5787854 11.58242462 0.47143555 10.46899414 C0.37992722 9.52915176 0.28841888 8.58930939 0.19413757 7.62098694 C0.00642755 5.08677622 0 2.54115309 0 0 Z " fill="#FEFEFE" transform="translate(110,82)"/>
<path d="M0 0 C26.4 0 52.8 0 80 0 C80 8.25 80 16.5 80 25 C84.95 25.99 84.95 25.99 90 27 C92.55465676 27.72662393 95.09770329 28.49578412 97.625 29.3125 C99.0012088 29.75419702 100.3775139 30.19559405 101.75390625 30.63671875 C102.79828857 30.97388916 102.79828857 30.97388916 103.86376953 31.31787109 C106.01772682 32.00566043 108.17717695 32.67217682 110.33984375 33.33203125 C111.04737793 33.54883545 111.75491211 33.76563965 112.48388672 33.98901367 C114.44855497 34.59013662 116.41371572 35.18964922 118.37890625 35.7890625 C121.99076247 36.99691086 125.49946864 38.49977228 129 40 C129 66.73 129 93.46 129 121 C123.84444327 120.2634919 119.74341792 119.43578791 114.875 117.875 C114.19904785 117.65980713 113.5230957 117.44461426 112.82666016 117.22290039 C108.80052415 115.93263476 104.78949986 114.59858566 100.78125 113.25390625 C99.88422363 112.95307129 98.98719727 112.65223633 98.06298828 112.34228516 C96.33615168 111.76102662 94.61045878 111.176353 92.88623047 110.58740234 C86.83844978 108.54219604 80.73652364 106.76296112 74.59277344 105.02905273 C68.84541339 103.38287697 63.14299099 101.5974603 57.4375 99.8125 C55.55162164 99.2248873 53.66574241 98.63727736 51.77981567 98.04981995 C49.83205993 97.44288701 47.88452048 96.835264 45.93701172 96.22753906 C39.46019163 94.20716537 32.9798883 92.19800576 26.5 90.1875 C25.33911865 89.82696533 24.1782373 89.46643066 22.98217773 89.0949707 C21.86399658 88.74781006 20.74581543 88.40064941 19.59375 88.04296875 C18.63146484 87.74414795 17.66917969 87.44532715 16.67773438 87.13745117 C11.12042861 85.4186854 5.5597923 83.71070532 0 82 C0 54.94 0 27.88 0 0 Z " fill="#FEFEFE" transform="translate(129,309)"/>
<path d="M0 0 C93.72 0 187.44 0 284 0 C284 25.41 284 50.82 284 77 C239.12 77 194.24 77 148 77 C148 51.92 148 26.84 148 1 C99.16 1 50.32 1 0 1 C0 0.67 0 0.34 0 0 Z " fill="#DEEBF0" transform="translate(110,82)"/>
<path d="M0 0 C16.17 0 32.34 0 49 0 C48.35753426 19.70228274 47.31465634 39.33373621 46 59 C41.05681507 60.65603984 36.1129436 62.31000878 31.16845703 63.9621582 C29.49053776 64.52312891 27.81279925 65.08464061 26.13525391 65.64672852 C23.70784412 66.45996139 21.27976575 67.27117107 18.8515625 68.08203125 C18.1157193 68.32903275 17.3798761 68.57603424 16.62173462 68.83052063 C11.10678384 70.6690304 5.57547998 72.32735601 0 74 C0 49.58 0 25.16 0 0 Z " fill="#F9502E" transform="translate(258,274)"/>
<path d="M0 0 C64.68 0 129.36 0 196 0 C196 0.33 196 0.66 196 1 C151.12 1 106.24 1 60 1 C60 12.55 60 24.1 60 36 C41.19 36 22.38 36 3 36 C2.505 30.988125 2.01 25.97625 1.5 20.8125 C1.34337891 19.23960205 1.18675781 17.6667041 1.02539062 16.04614258 C0.90357422 14.79986084 0.78175781 13.5535791 0.65625 12.26953125 C0.53056641 10.99698486 0.40488281 9.72443848 0.27539062 8.41333008 C0 5 0 5 0 0 Z " fill="#FC9A36" transform="translate(198,159)"/>
</svg>
