<?xml version="1.0" encoding="UTF-8"?>
<svg version="1.1" xmlns="http://www.w3.org/2000/svg" width="200" height="200">
<path d="M0 0 C0.928125 0.66 1.85625 1.32 2.8125 2 C6.66686322 4.41842398 8.58203064 4.18932177 12.98828125 4.03125 C37.48950827 3.77702196 59.57424858 15.07794659 76.9140625 31.8515625 C89.48385886 45.33970014 97.42002241 62.08950964 97.2109375 80.65625 C96.58056641 90.6487992 92.16610161 100.47359498 84.75 107.3125 C73.30564168 116.1581394 59.25224996 119.21505357 45 118 C35.94806751 116.70418394 27.45848163 114.46428457 19 111 C20.16119677 109.80465039 21.32785789 108.61418795 22.51953125 107.44921875 C23.49598384 106.49337729 24.45260841 105.51679271 25.38671875 104.51953125 C27.4037634 102.5466958 29.09922433 101.05674177 31.984375 100.875 C34.04412681 101.12278969 35.98452225 101.51069326 38 102 C48.70951918 104.56056567 61.22662052 104.32640885 71 99 C77.63757511 94.90288515 80.56421975 89.41584756 82.53125 81.99609375 C84.67899132 69.91504882 78.37778161 58.45476943 71.9765625 48.703125 C60.19764489 32.59440764 41.34124107 22.64023358 22 19 C17.34877311 18.40947493 12.68507468 18.14437826 8 18 C7.56880859 19.18142578 7.56880859 19.18142578 7.12890625 20.38671875 C5.63385876 23.84757263 4.48898807 24.58955802 1 26 C-3.78913501 26.72455548 -7.08734773 26.46462297 -11.4375 24.25 C-14.49294678 21.56716868 -15.74102473 19.6519896 -16.37109375 15.6328125 C-16.4867426 11.2653677 -16.56264275 8.01363987 -13.75 4.5 C-9.13444015 0.3040365 -6.35149417 -0.65705112 0 0 Z " fill="#7D56C2" transform="translate(91,66)"/>
<path d="M0 0 C13.91244903 10.67071334 22.39208332 25.77613482 25.75 42.875 C25.84375 45.7734375 25.84375 45.7734375 25.75 47.875 C12.20445642 44.14358611 12.20445642 44.14358611 8.88671875 38.96875 C8.11916231 36.75312315 7.41318771 34.51533978 6.765625 32.26171875 C3.46942934 21.270174 -3.96384986 14.5518048 -13.5625 8.9375 C-21.21329512 6.73303361 -28.94185422 6.78667628 -36.09375 10.4921875 C-49.06358479 18.80979894 -54.25324885 30.54401978 -58.25 44.875 C-62.05138397 62.53459387 -59.09134913 80.7864478 -50.51953125 96.51953125 C-49.25 98.875 -49.25 98.875 -48.25 101.875 C-47.65832031 101.84019531 -47.06664063 101.80539063 -46.45703125 101.76953125 C-41.57721347 101.60235968 -38.08695064 101.48945531 -34.25 104.875 C-31.35449569 109.26817896 -30.69121634 112.65968583 -31.25 117.875 C-32.49411954 121.27995873 -33.63309603 123.31417821 -36.3125 125.75 C-41.56861307 127.76297947 -46.93138693 127.76297947 -52.1875 125.75 C-55.73552601 122.52452181 -57.11441399 119.31221167 -57.5625 114.5625 C-58.37656697 110.19614079 -60.11595088 107.88128033 -62.6328125 104.3046875 C-69.73859593 93.62884862 -73.71566842 79.65249426 -74.25 66.875 C-74.28996094 66.06289062 -74.32992187 65.25078125 -74.37109375 64.4140625 C-74.89676118 43.32552215 -69.1754323 22.60766769 -54.4765625 7.09765625 C-39.2644575 -8.08776084 -18.91244148 -12.4223024 0 0 Z " fill="#7D56C2" transform="translate(119.25,23.125)"/>
<path d="M0 0 C3.92871417 13.70798105 3.92871417 13.70798105 1.78125 19.0078125 C-0.03358833 21.46092025 -1.97884432 23.71592976 -4 26 C-9.19656911 34.70268803 -12.17489169 44.46389104 -10.4375 54.625 C-8.44287391 62.10154547 -3.71173955 67.05189488 2.77734375 70.9921875 C15.26818374 76.65587242 29.78499152 75.08907872 42.328125 70.46875 C60.09020835 63.36391666 73.02738995 53.11906205 83.30078125 36.953125 C84.24295801 34.32134635 83.8687386 32.43421793 83.4375 29.6875 C82.85329828 24.34419154 83.11298029 21.56335373 86 17 C89.39100112 13.85121325 92.02459542 12.74371416 96.5625 12.5625 C100.45035754 12.75852643 102.96936391 13.41504569 106 16 C109.35652025 19.81948856 109.57457384 23.65960805 109.4140625 28.5625 C108.71356824 32.68616432 107.12037932 34.21879235 104 37 C103.030625 37.4125 102.06125 37.825 101.0625 38.25 C97.04733206 40.54438168 95.84328864 43.27743673 93.625 47.24609375 C81.22120981 68.26694011 60.22095012 80.97521604 37.21875 87.2734375 C21.92948318 90.72465549 5.65727375 89.90509631 -8.0625 81.8125 C-16.41527175 75.93044302 -22.1452308 67.55509321 -24.5859375 57.61328125 C-27.14893065 41.43740939 -22.23366606 26.36173787 -12.9765625 13.1015625 C-2.70777027 0 -2.70777027 0 0 0 Z " fill="#7D56C2" transform="translate(37,95)"/>
</svg>
