<?xml version="1.0" encoding="UTF-8"?>
<svg version="1.1" xmlns="http://www.w3.org/2000/svg" width="512" height="512">
<path d="M0 0 C3.50392403 -0.00434311 7.0065539 -0.04068485 10.51025391 -0.07861328 C56.30689481 -0.30749282 102.64901782 13.56523579 141.17041016 38.37060547 C141.83443848 38.79809082 142.4984668 39.22557617 143.18261719 39.66601562 C158.70611058 49.7789552 172.79286979 61.58433761 186.17041016 74.37060547 C186.91806641 75.07701172 187.66572266 75.78341797 188.43603516 76.51123047 C193.83564331 81.74077223 198.49722445 87.49314662 203.17041016 93.37060547 C204.04595939 94.44413658 204.92228433 95.51703544 205.79931641 96.58935547 C233.2463691 130.43317556 251.02127007 171.45935845 258.17041016 214.37060547 C258.34628662 215.2792334 258.52216309 216.18786133 258.70336914 217.12402344 C260.89161724 229.7635326 260.61115967 242.58220396 260.60791016 255.37060547 C260.60901291 257.24643311 260.60901291 257.24643311 260.61013794 259.16015625 C260.58091485 278.05432417 259.85966534 295.98302359 255.17041016 314.37060547 C254.77692383 315.95059326 254.77692383 315.95059326 254.37548828 317.5625 C244.01961466 358.08575369 225.03486279 396.81168091 196.17041016 427.37060547 C195.06113151 428.65788465 193.95684925 429.94948831 192.85791016 431.24560547 C184.72849321 440.53904978 175.86204761 448.73520564 166.17041016 456.37060547 C164.99091797 457.3509375 164.99091797 457.3509375 163.78759766 458.35107422 C156.63380996 464.26534424 148.97059382 469.35900478 141.17041016 474.37060547 C140.23841797 474.98291016 139.30642578 475.59521484 138.34619141 476.22607422 C137.62818359 476.60376953 136.91017578 476.98146484 136.17041016 477.37060547 C135.51041016 477.04060547 134.85041016 476.71060547 134.17041016 476.37060547 C138.92041016 472.37060547 138.92041016 472.37060547 141.17041016 472.37060547 C138.03705781 466.5593896 134.71085967 460.97586813 131.01416016 455.50732422 C130.52270508 454.77363113 130.03125 454.03993805 129.52490234 453.28401184 C128.46379447 451.70039718 127.40116793 450.11779922 126.3371582 448.53613281 C123.44054047 444.22960433 120.55592937 439.91504362 117.67041016 435.60107422 C117.0647522 434.69610199 116.45909424 433.79112976 115.83508301 432.85873413 C107.50548282 420.40183861 99.27951881 407.87649674 91.04345703 395.35766602 C89.88791993 393.6015218 88.7323223 391.8454174 87.57666016 390.08935547 C87.01850616 389.24119263 86.46035217 388.39302979 85.88528442 387.51916504 C82.2653455 382.0223528 78.62316703 376.54095326 74.96627808 371.06867981 C71.56812033 365.9786024 68.19850064 360.87000962 64.83447266 355.75732422 C64.27426926 354.90594376 63.71406586 354.05456329 63.1368866 353.17738342 C61.96481393 351.39586634 60.79279266 349.61431544 59.62081909 347.83273315 C51.27089104 335.1408146 42.91062911 322.45637052 34.47119141 309.82373047 C33.84891663 308.89208572 33.22664185 307.96044098 32.58551025 307.00056458 C29.63081 302.57861709 26.67272962 298.15897687 23.70996094 293.74243164 C17.81226608 284.93567103 12.04271146 276.06467273 6.40878296 267.08676147 C2.49915668 260.86394844 -1.52085096 254.72858547 -5.62442017 248.63134766 C-7.73284666 245.49779218 -9.83204658 242.35806572 -11.93115234 239.21826172 C-12.38837173 238.5345047 -12.84559113 237.85074768 -13.31666565 237.14627075 C-18.52456475 229.34706895 -23.67339635 221.50908609 -28.82495117 213.67260742 C-31.35615623 209.82270626 -33.8924227 205.97622541 -36.43383789 202.13305664 C-37.66081815 200.27735093 -38.88778775 198.42163817 -40.11474609 196.56591797 C-40.7055748 195.67252213 -41.2964035 194.77912628 -41.90513611 193.85865784 C-44.84016638 189.41293613 -47.75138995 184.95491683 -50.60673523 180.45758057 C-51.64611966 178.82357249 -52.69785192 177.19743813 -53.75024414 175.57177734 C-54.9153267 173.77183131 -56.06103252 171.95908511 -57.18041992 170.13037109 C-59.82955927 166.093424 -61.63843565 164.00761592 -66.43115234 162.86279297 C-67.89234312 162.65926997 -69.35913469 162.49002803 -70.82958984 162.37060547 C-71.68810547 162.28294922 -72.54662109 162.19529297 -73.43115234 162.10498047 C-78.21824962 162.14194647 -82.25009386 162.81357684 -86.82958984 164.37060547 C-87.81958984 164.70060547 -88.80958984 165.03060547 -89.82958984 165.37060547 C-90.17455687 200.53436461 -90.482581 235.69830031 -90.74334049 270.86277866 C-90.78927921 277.05461314 -90.83617758 283.24643414 -90.88677979 289.43823242 C-90.97947531 300.80462727 -91.06267101 312.17085978 -91.10601234 323.53756428 C-91.12354513 328.11277815 -91.14749234 332.68771746 -91.18847656 337.26278687 C-91.2261145 341.50033552 -91.2449545 345.7375321 -91.24854088 349.97524261 C-91.25301913 351.5022312 -91.2642465 353.02921819 -91.282938 354.55609894 C-91.30712753 356.61898381 -91.30650031 358.68042699 -91.29956055 360.7434082 C-91.30542679 361.88720444 -91.31129303 363.03100067 -91.31733704 364.2094574 C-90.7152638 368.11156628 -89.26117994 370.29773945 -86.82958984 373.37060547 C-83.91717577 374.8268125 -81.3228283 374.54099978 -78.07958984 374.55810547 C-76.86787109 374.57228516 -75.65615234 374.58646484 -74.40771484 374.60107422 C-69.79098309 374.30370831 -66.1594166 373.70043223 -62.82958984 370.37060547 C-61.573221 362.69344306 -61.65850985 354.98485366 -61.62426758 347.22192383 C-61.61467096 345.81174443 -61.60465988 344.40156781 -61.5942688 342.99139404 C-61.56740672 339.18834712 -61.54629686 335.38528803 -61.52626681 331.58219981 C-61.50429088 327.59836192 -61.47695937 323.61456075 -61.45021057 319.63075256 C-61.40043973 312.0980962 -61.35544347 304.5654193 -61.31218821 297.03272301 C-61.26268182 288.45224218 -61.2078137 279.87179821 -61.15250862 271.29135311 C-61.03892841 253.65113817 -60.93203787 236.01088839 -60.82958984 218.37060547 C-57.10427983 219.61237547 -56.56609318 220.8301951 -54.41552734 224.05810547 C-53.74666504 225.05269775 -53.07780273 226.04729004 -52.38867188 227.07202148 C-51.6679248 228.1605542 -50.94717773 229.24908691 -50.20458984 230.37060547 C-49.43704008 231.51692177 -48.66863303 232.66266446 -47.89941406 233.80786133 C-46.30836979 236.17797676 -44.72101641 238.5505005 -43.13623047 240.92480469 C-39.77705875 245.9511893 -36.36272528 250.93985919 -32.95458984 255.93310547 C-19.64611682 275.48838067 -6.44367643 295.11574096 6.78271484 314.7265625 C13.10663004 324.10276568 19.43221813 333.47782916 25.76435852 342.84848022 C28.03712428 346.21188122 30.30938899 349.57560373 32.57714844 352.94238281 C41.1419319 365.65300089 49.97141581 378.11076016 59.17041016 390.37060547 C59.68168457 391.0528418 60.19295898 391.73507812 60.71972656 392.43798828 C62.69025642 395.06664306 64.66191131 397.69444173 66.63647461 400.32006836 C70.46863923 405.41971242 74.26349855 410.54610472 78.04541016 415.68310547 C78.63209473 416.47990723 79.2187793 417.27670898 79.82324219 418.09765625 C82.75566738 422.08270575 85.68393797 426.07075631 88.60791016 430.06201172 C95.45846364 439.40137225 102.39915429 448.66248427 109.46606445 457.83959961 C112.48148383 461.77048683 115.44555864 465.70873135 118.22900391 469.80810547 C118.68049805 470.46963623 119.13199219 471.13116699 119.59716797 471.81274414 C120.4101228 473.01879506 121.20887118 474.23460483 121.98974609 475.46166992 C123.13538213 477.24501523 123.13538213 477.24501523 125.17041016 479.37060547 C127.85373931 479.8472389 127.85373931 479.8472389 130.17041016 479.37060547 C125.06732477 489.57677624 98.20900545 496.59617148 87.98291016 500.05810547 C80.27715223 502.57750422 72.47918176 504.68542514 64.60791016 506.62060547 C63.66471924 506.85481201 62.72152832 507.08901855 61.74975586 507.33032227 C58.56698028 508.07872131 55.37902236 508.74151345 52.17041016 509.37060547 C51.4937027 509.50371124 50.81699524 509.63681702 50.11978149 509.7739563 C36.13114642 512.43196146 22.32301231 512.86748619 8.10913086 512.81665039 C4.50462302 512.80815663 0.90171542 512.83699863 -2.70263672 512.86865234 C-69.86809682 513.072296 -133.00445999 483.08675023 -180.20458984 436.24560547 C-185.81584328 430.59096805 -190.95251737 424.67424393 -195.82958984 418.37060547 C-196.62751953 417.36642578 -197.42544922 416.36224609 -198.24755859 415.32763672 C-229.81760764 375.36352395 -251.59511938 323.77070405 -252.10302734 272.39404297 C-252.11560074 271.24300583 -252.12817413 270.09196869 -252.14112854 268.90605164 C-252.5611714 221.22226469 -252.5611714 221.22226469 -246.82958984 198.37060547 C-246.43610352 196.73406006 -246.43610352 196.73406006 -246.03466797 195.06445312 C-242.51653319 180.67764418 -237.81643317 166.90946236 -231.82958984 153.37060547 C-231.45995117 152.52578613 -231.0903125 151.6809668 -230.70947266 150.81054688 C-221.64379365 130.31105849 -209.96889556 111.73999223 -195.82958984 94.37060547 C-195.08974854 93.45722412 -195.08974854 93.45722412 -194.33496094 92.52539062 C-183.46592308 79.21036562 -171.45610596 66.87356488 -157.82958984 56.37060547 C-156.82669922 55.57396484 -155.82380859 54.77732422 -154.79052734 53.95654297 C-120.69939922 27.01820653 -80.60839677 9.70490301 -37.82958984 2.37060547 C-36.27933105 2.09023438 -36.27933105 2.09023438 -34.69775391 1.80419922 C-23.17469683 -0.0264141 -11.64298359 -0.00160748 0 0 Z M68.29541016 157.80810547 C66.047787 160.9298043 66.02533598 163.89989694 65.962677 167.60801697 C65.94251526 168.6939061 65.92235352 169.77979523 65.90158081 170.89859009 C65.8847525 172.09068085 65.86792419 173.28277161 65.85058594 174.51098633 C65.82955811 175.76676987 65.80853027 177.02255341 65.78686523 178.31639099 C65.59839042 189.94764013 65.49605753 201.580308 65.41472054 213.21274471 C65.35895045 221.01953793 65.2789046 228.82441894 65.13476562 236.63012695 C65.00877623 243.45297345 64.93019988 250.27449972 64.90658939 257.0984965 C64.89265548 260.70112996 64.85731618 264.30028141 64.76535416 267.9018383 C64.32740583 285.80707579 65.95528622 298.30092295 77.61321259 312.43436432 C79.86435333 315.23346407 81.71913621 318.20071001 83.61572266 321.24951172 C84.84227406 323.14405015 86.06883603 325.03858174 87.29541016 326.93310547 C87.92705078 327.91472656 88.55869141 328.89634766 89.20947266 329.90771484 C89.81791016 330.84550781 90.42634766 331.78330078 91.05322266 332.74951172 C91.58318848 333.57008057 92.1131543 334.39064941 92.65917969 335.23608398 C94.0354886 337.18003695 95.46983412 338.71716202 97.17041016 340.37060547 C97.28719407 317.13558978 97.37537421 293.90062246 97.42947102 270.66537285 C97.45525637 259.87691311 97.49041338 249.08863569 97.54760742 238.30029297 C97.59743206 228.89753922 97.62969876 219.4949175 97.64085263 210.09203541 C97.64737295 205.11287602 97.6627046 200.13409437 97.69906044 195.155056 C97.73300499 190.46826665 97.74346621 185.78201054 97.73594856 181.09510994 C97.7373238 179.3753895 97.74726563 177.65565118 97.76643753 175.93603706 C97.79135299 173.58592628 97.78532274 171.23782298 97.77168274 168.88766479 C97.7762917 167.573188 97.78090067 166.2587112 97.7856493 164.90440178 C96.97828668 160.2670911 95.47821173 158.66024893 92.17041016 155.37060547 C89.93953809 154.33877895 89.93953809 154.33877895 87.17041016 154.37060547 C86.41373047 154.33322266 85.65705078 154.29583984 84.87744141 154.25732422 C78.98755284 154.08802334 73.16744239 154.07288075 68.29541016 157.80810547 Z " fill="#000000" transform="translate(251.82958984375,-0.37060546875)"/>
<path d="M0 0 C0.99 0.33 1.98 0.66 3 1 C2.01 1.33 1.02 1.66 0 2 C0 1.34 0 0.68 0 0 Z " fill="#000000" transform="translate(383,477)"/>
</svg>
