<?xml version="1.0" encoding="UTF-8"?>
<svg version="1.1" xmlns="http://www.w3.org/2000/svg" width="250" height="250">
<path d="M0 0 C6.89694825 3.58873218 13.6603217 7.34365999 20.34790039 11.30859375 C22.45692325 12.54877611 24.566311 13.78833813 26.67602539 15.02734375 C28.29347656 15.97867187 28.29347656 15.97867187 29.94360352 16.94921875 C35.31285629 20.09593985 40.70552212 23.2017295 46.09790039 26.30859375 C47.16177979 26.92395996 48.22565918 27.53932617 49.32177734 28.17333984 C54.41427998 31.11625299 59.51441023 34.04301832 64.64532471 36.91838074 C66.45018079 37.93085251 68.25221213 38.948178 70.0534668 39.96704102 C72.31716917 41.24555193 74.58613345 42.51480603 76.86108398 43.77319336 C88.77588329 50.53004246 88.77588329 50.53004246 91.22290039 57.87109375 C91.32152538 59.31233452 91.36632645 60.75762088 91.37680054 62.20219421 C91.385401 63.08665726 91.39400146 63.9711203 91.40286255 64.88238525 C91.40925247 66.3341214 91.40925247 66.3341214 91.41577148 67.81518555 C91.42803772 69.34738487 91.42803772 69.34738487 91.44055176 70.91053772 C91.46540062 74.29712335 91.48192134 77.68366705 91.49633789 81.0703125 C91.50166157 82.22702768 91.50698524 83.38374287 91.51247025 84.57551003 C91.53920073 90.69901492 91.55857524 96.82249944 91.57299805 102.94604492 C91.58963761 109.26674572 91.63441065 115.5869243 91.68536949 121.90742779 C91.71904895 126.77082407 91.73057635 131.63409656 91.73622513 136.49759865 C91.74293651 138.82716674 91.75815547 141.15672672 91.78211594 143.48618126 C91.81378124 146.7512282 91.81380145 150.01486871 91.80639648 153.2800293 C91.82280182 154.23773224 91.83920715 155.19543518 91.85610962 156.18215942 C91.79652871 162.61808804 90.36415801 166.88767786 86.22290039 171.87109375 C83.86474609 173.82641602 83.86474609 173.82641602 81.39868164 175.1875 C80.46620605 175.71593506 79.53373047 176.24437012 78.57299805 176.78881836 C77.57059082 177.33159424 76.56818359 177.87437012 75.53540039 178.43359375 C73.36213548 179.65479164 71.18896147 180.8761513 69.01586914 182.09765625 C67.8935791 182.71930664 66.77128906 183.34095703 65.61499023 183.98144531 C60.15394781 187.0236555 54.7553528 190.17247657 49.34790039 193.30859375 C47.17899729 194.55793028 45.0097237 195.80662384 42.84008789 197.0546875 C38.31710418 199.65933938 33.80240518 202.27781788 29.29321289 204.90625 C22.95612093 208.59609975 16.60275503 212.25565443 10.22290039 215.87109375 C9.44865723 216.31050293 8.67441406 216.74991211 7.87670898 217.20263672 C5.98334642 218.26290198 4.07834479 219.29365887 2.16040039 220.30859375 C0.71987305 221.08009766 0.71987305 221.08009766 -0.74975586 221.8671875 C-6.83579093 223.88539526 -11.77739573 223.65520115 -17.53881836 220.78125 C-19.19250486 219.85266951 -20.83422765 218.90252515 -22.46459961 217.93359375 C-23.32730469 217.44012451 -24.19000977 216.94665527 -25.07885742 216.43823242 C-32.47157102 212.16787736 -39.68709016 207.62515638 -46.77709961 202.87109375 C-45.77709961 199.87109375 -45.77709961 199.87109375 -43.59741211 198.7734375 C-42.70795898 198.45503906 -41.81850586 198.13664063 -40.90209961 197.80859375 C-37.8177347 196.68905022 -35.53316332 195.70846956 -32.77709961 193.87109375 C-29.08710219 194.20036535 -26.60983395 195.36894462 -23.56225586 197.41015625 C-22.79333008 197.90773437 -22.0244043 198.4053125 -21.23217773 198.91796875 C-19.63624041 199.97063598 -18.0450673 201.03056175 -16.45874023 202.09765625 C-11.91009308 205.06599586 -11.91009308 205.06599586 -6.66381836 205.96484375 C-3.03287428 204.58911392 0.18931907 202.78847253 3.47290039 200.74609375 C4.98893196 199.82924677 6.50592297 198.91398507 8.02368164 198 C8.85206543 197.49871582 9.68044922 196.99743164 10.53393555 196.48095703 C15.53888424 193.48453142 20.60318981 190.59062207 25.66040039 187.68359375 C27.8883191 186.39983352 30.11618284 185.11597788 32.34399414 183.83203125 C35.81921783 181.83070804 39.29466516 179.82977374 42.77026367 177.82910156 C45.12200977 176.47531303 47.47348551 175.12105681 49.82470703 173.76635742 C52.02264473 172.50008381 54.22102039 171.23456995 56.41992188 169.9699707 C57.42740479 169.38948975 58.4348877 168.80900879 59.47290039 168.2109375 C60.78000977 167.45864868 60.78000977 167.45864868 62.11352539 166.69116211 C63.13961914 166.09053955 64.16571289 165.48991699 65.22290039 164.87109375 C66.05735184 164.60803436 66.89180328 164.34497498 67.75154114 164.07394409 C71.1143131 162.73929168 72.87494791 161.65645746 75.22290039 158.87109375 C77.32730734 152.12663101 76.80313083 144.62137664 76.79711914 137.63671875 C76.82164932 135.51688386 76.84811208 133.39707053 76.87641907 131.27728271 C76.9227251 126.83497542 76.92931301 122.39463907 76.91113281 117.95214844 C76.89336085 112.27487098 76.99859364 106.6074022 77.13725567 100.93207169 C77.22623505 96.55276461 77.23665072 92.17579894 77.22519875 87.7957077 C77.23143398 85.70481508 77.26463516 83.61381364 77.32596397 81.52381134 C77.96320109 70.56989756 77.96320109 70.56989756 73.56140327 61.03525352 C69.50295987 57.8371767 65.06480321 55.70778771 60.3034687 53.75899315 C57.29096671 52.47338349 54.58878115 50.8377591 51.78930664 49.140625 C49.78842936 47.9875438 47.78712265 46.83520746 45.78540039 45.68359375 C43.55492537 44.39844838 41.32445682 43.11329178 39.09399414 41.828125 C37.4037915 40.85480225 37.4037915 40.85480225 35.67944336 39.86181641 C31.02497452 37.18117374 26.37158383 34.49866494 21.71875 31.81518555 C19.54657697 30.56241421 17.37422725 29.30994915 15.20166016 28.05786133 C14.20062256 27.48060303 13.19958496 26.90334473 12.16821289 26.30859375 C11.19142578 25.75042969 10.21463867 25.19226563 9.20825195 24.6171875 C7.12056331 23.39612525 5.05620729 22.13468303 3.01098633 20.84375 C1.96458984 20.19277344 0.91819336 19.54179688 -0.15991211 18.87109375 C-1.09464355 18.27296875 -2.029375 17.67484375 -2.99243164 17.05859375 C-6.47353397 15.57410473 -8.17075971 15.83177697 -11.77709961 16.87109375 C-14.28990622 17.99984559 -14.28990622 17.99984559 -16.69897461 19.50390625 C-17.62822754 20.0548999 -18.55748047 20.60589355 -19.51489258 21.17358398 C-20.5089209 21.77501221 -21.50294922 22.37644043 -22.52709961 22.99609375 C-24.69070082 24.28202644 -26.85477963 25.56715585 -29.01928711 26.8515625 C-30.13529297 27.51720215 -31.25129883 28.1828418 -32.40112305 28.86865234 C-37.78963175 32.06481581 -43.22066428 35.1861266 -48.65209961 38.30859375 C-50.80711758 39.55065972 -52.96206488 40.79284831 -55.11694336 42.03515625 C-59.1611235 44.36488363 -63.20592254 46.69353278 -67.25109863 49.02153015 C-69.65927436 50.40769113 -72.0670066 51.79462124 -74.47467041 53.18167114 C-76.17968195 54.16348673 -77.88536631 55.14413359 -79.59106445 56.12475586 C-81.13528076 57.01432983 -81.13528076 57.01432983 -82.71069336 57.921875 C-83.61875732 58.44434814 -84.52682129 58.96682129 -85.46240234 59.50512695 C-87.26836161 60.57087341 -89.0323109 61.70790127 -90.77709961 62.87109375 C-91.0631191 65.95121989 -91.15499789 68.82932297 -91.11767578 71.91064453 C-91.11811386 72.84727936 -91.11855194 73.78391418 -91.1190033 74.74893188 C-91.1169078 77.85496634 -91.09354083 80.96046571 -91.07006836 84.06640625 C-91.06447511 86.21588852 -91.06020374 88.36537461 -91.0572052 90.51486206 C-91.04573508 96.18014024 -91.01624921 101.84518873 -90.98309326 107.51037598 C-90.95243906 113.2881357 -90.93870982 119.06593244 -90.92358398 124.84375 C-90.89138163 136.18629899 -90.84015911 147.52867729 -90.77709961 158.87109375 C-87.05086495 161.00126611 -83.32061879 163.1243144 -79.58959961 165.24609375 C-78.53450195 165.849375 -77.4794043 166.45265625 -76.39233398 167.07421875 C-74.85996094 167.94433594 -74.85996094 167.94433594 -73.29663086 168.83203125 C-72.35924072 169.36618652 -71.42185059 169.9003418 -70.45605469 170.45068359 C-65.76078984 172.94016239 -62.1555524 174.43134925 -56.77709961 173.87109375 C-53.44475547 172.50786206 -52.12430987 171.65441042 -50.65541077 168.3405304 C-49.55255 163.98409529 -49.4771688 159.96078249 -49.47412109 155.48510742 C-49.4614621 154.09631882 -49.4614621 154.09631882 -49.44854736 152.67947388 C-49.42284688 149.63266465 -49.41065023 146.58595206 -49.39819336 143.5390625 C-49.38201588 141.42010229 -49.36483562 139.30114951 -49.34669495 137.1822052 C-49.30107086 131.61450629 -49.26622523 126.04679748 -49.23449707 120.47900391 C-49.18254956 111.54913117 -49.11765379 102.61936704 -49.04628181 93.68963051 C-49.02338108 90.56467798 -49.00715805 87.4397395 -48.99156189 84.31474304 C-48.97816282 82.41319622 -48.96454869 80.5116509 -48.95068359 78.61010742 C-48.94807022 77.73480881 -48.94545685 76.85951019 -48.94276428 75.95768738 C-48.8907417 69.98473584 -48.8907417 69.98473584 -47.77709961 68.87109375 C-45.42396406 68.79837634 -43.06876292 68.78738507 -40.71459961 68.80859375 C-38.77907227 68.82212891 -38.77907227 68.82212891 -36.80444336 68.8359375 C-35.80541992 68.84753906 -34.80639648 68.85914062 -33.77709961 68.87109375 C-32.08655386 72.25218526 -32.62068668 76.09229813 -32.6159668 79.81201172 C-32.60851944 81.20268105 -32.60851944 81.20268105 -32.60092163 82.6214447 C-32.58626798 85.70206437 -32.57948963 88.78263239 -32.57397461 91.86328125 C-32.56822198 94.00643922 -32.56246426 96.14959718 -32.55670166 98.29275513 C-32.54617997 102.79706055 -32.54034621 107.30134808 -32.53686523 111.80566406 C-32.53140436 117.55303188 -32.50743303 123.30015992 -32.47889328 129.04745293 C-32.46017726 133.48123845 -32.45505635 137.91496754 -32.45352936 142.34878922 C-32.45051812 144.46569238 -32.44254177 146.58259491 -32.42934418 148.69945908 C-32.27517616 175.34919625 -32.27517616 175.34919625 -38.33959961 183.87109375 C-43.79830429 189.34317761 -50.53586086 191.08692458 -58.08959961 191.43359375 C-70.22949747 190.91371386 -79.92580884 184.88828513 -90.27709961 179.05859375 C-91.32873291 178.47835449 -92.38036621 177.89811523 -93.46386719 177.30029297 C-94.46442139 176.71908691 -95.46497559 176.13788086 -96.49584961 175.5390625 C-97.39239258 175.02625732 -98.28893555 174.51345215 -99.21264648 173.98510742 C-103.25443942 170.6532448 -106.23229177 166.70122448 -107.23970985 161.4679575 C-107.41728351 158.74828189 -107.44169483 156.06879632 -107.40820312 153.34350586 C-107.41535843 152.31970322 -107.42251373 151.29590057 -107.42988586 150.24107361 C-107.44671491 146.87639968 -107.42740438 143.51306889 -107.40600586 140.1484375 C-107.40683502 137.80009349 -107.40929618 135.45174953 -107.41331482 133.10340881 C-107.41616879 128.19009867 -107.40150882 123.27724539 -107.37402344 118.36401367 C-107.33992329 112.0736061 -107.34596936 105.78401422 -107.36468601 99.49356747 C-107.3752653 94.64731576 -107.36630989 89.80125313 -107.35130119 84.955019 C-107.34612707 82.635835 -107.34659181 80.31663121 -107.35284615 77.99744987 C-107.35831009 74.75429838 -107.33788453 71.5123064 -107.31054688 68.26928711 C-107.31707275 67.31584412 -107.32359863 66.36240112 -107.33032227 65.38006592 C-107.24425964 59.36075661 -106.26278863 55.81549446 -102.77709961 50.87109375 C-100.87255859 49.13647461 -100.87255859 49.13647461 -98.83569336 47.8984375 C-97.65015869 47.16729736 -97.65015869 47.16729736 -96.44067383 46.42138672 C-95.56169434 45.90979004 -94.68271484 45.39819336 -93.77709961 44.87109375 C-92.3252124 44.01668701 -92.3252124 44.01668701 -90.84399414 43.14501953 C-88.11195693 41.55904341 -85.37016775 39.9923151 -82.61950684 38.43890381 C-80.15506887 37.04696369 -77.69502909 35.64732759 -75.23464966 34.24822998 C-73.96082843 33.52394943 -72.68679996 32.80003323 -71.41256714 32.07647705 C-65.10236059 28.49243407 -58.81216237 24.8740374 -52.52709961 21.24609375 C-51.47522461 20.63950928 -50.42334961 20.0329248 -49.33959961 19.40795898 C-43.8562723 16.24180958 -38.38331046 13.05882717 -32.92163086 9.85546875 C-31.81658203 9.20787598 -30.7115332 8.5602832 -29.57299805 7.89306641 C-27.46403604 6.65577897 -25.35654103 5.41598663 -23.25073242 4.17333984 C-22.31197266 3.62242676 -21.37321289 3.07151367 -20.40600586 2.50390625 C-19.58173096 2.01809082 -18.75745605 1.53227539 -17.90820312 1.03173828 C-12.25305577 -2.04817586 -5.97083999 -2.42717926 0 0 Z " fill="#20A365" transform="translate(132.777099609375,14.12890625)"/>
<path d="M0 0 C1.1559668 0.00161133 2.31193359 0.00322266 3.50292969 0.00488281 C13.79394166 0.15293404 24.3176378 1.16012436 32.3125 8.375 C38.10668045 15.71242464 40.78860778 22.01154694 40.3125 31.375 C39.3125 32.375 39.3125 32.375 36.15234375 32.47265625 C34.86457031 32.46105469 33.57679688 32.44945312 32.25 32.4375 C30.31447266 32.42396484 30.31447266 32.42396484 28.33984375 32.41015625 C27.34082031 32.39855469 26.34179688 32.38695312 25.3125 32.375 C24.94898438 31.54355469 24.58546875 30.71210937 24.2109375 29.85546875 C23.70820313 28.76878906 23.20546875 27.68210937 22.6875 26.5625 C21.95660156 24.94408203 21.95660156 24.94408203 21.2109375 23.29296875 C18.53711817 19.18320941 15.56620673 18.01678404 10.953125 16.703125 C1.30500818 15.50424658 -8.74008104 15.29372118 -17.6875 19.375 C-20.2861701 21.9736701 -20.31999261 23.77342758 -20.6875 27.375 C-20.3575 28.365 -20.0275 29.355 -19.6875 30.375 C-9.72556978 34.8402056 1.62204383 35.8797924 12.31640625 37.44140625 C34.16983867 40.81895824 34.16983867 40.81895824 40.4921875 48.87890625 C44.57364159 55.39515881 44.19569638 62.97334542 43.3125 70.375 C41.4768139 76.82950918 38.19839135 81.40275635 32.625 85.12890625 C17.30305293 93.38515813 -2.1872609 93.49651026 -18.80078125 89.2890625 C-27.27141083 86.60688751 -34.10956779 82.63306206 -38.5625 74.75 C-41.19844978 69.15808098 -41.07897724 64.482045 -40.6875 58.375 C-35.7375 58.375 -30.7875 58.375 -25.6875 58.375 C-25.130625 59.9425 -24.57375 61.51 -24 63.125 C-22.25717319 67.4545487 -20.85382879 69.99424069 -16.6875 72.375 C-5.80821197 76.86861897 8.09609217 76.72318144 19.3125 73.375 C22.20938722 71.52099218 23.79038708 70.41922584 25.3125 67.375 C25.89619443 63.95961856 25.89619443 63.95961856 25.3125 60.375 C21.14600317 56.94487799 17.52162108 55.69387513 12.25 54.8125 C11.57243652 54.69447021 10.89487305 54.57644043 10.19677734 54.45483398 C6.12590354 53.76509522 2.043139 53.19821117 -2.05078125 52.6640625 C-20.64035777 50.22959554 -20.64035777 50.22959554 -27.6875 46.375 C-28.80125 45.776875 -29.915 45.17875 -31.0625 44.5625 C-35.83083839 40.58888467 -38.28683211 35.47414075 -38.890625 29.296875 C-39.08027743 20.50964559 -36.6528737 14.57450753 -30.640625 8.1328125 C-22.10424877 0.4500739 -10.92563986 -0.01570227 0 0 Z " fill="#20A365" transform="translate(147.6875,80.625)"/>
</svg>
