<?xml version="1.0" encoding="UTF-8"?>
<svg version="1.1" xmlns="http://www.w3.org/2000/svg" width="512" height="512">
<path d="M0 0 C8.99334516 6.91372017 15.33475228 15.60449076 21.55078125 24.9609375 C22.15664063 25.85941406 22.7625 26.75789063 23.38671875 27.68359375 C33.53527837 43.85934958 39.53295129 62.94730079 45.55078125 80.9609375 C46.21907959 80.81994629 46.88737793 80.67895508 47.57592773 80.53369141 C78.85353164 73.98141305 116.22873686 66.60641161 145.55078125 83.7109375 C154.95453452 90.04824949 160.82677949 97.95031765 163.55078125 108.9609375 C166.73514407 132.34978754 156.91267176 154.19179079 143.55078125 172.8984375 C142.2313205 174.59680653 140.89707225 176.28375696 139.55078125 177.9609375 C138.69825065 179.07378536 137.84814434 180.18849309 137 181.3046875 C130.91910486 189.25060785 124.42852019 196.69740662 117.55078125 203.9609375 C119.52798791 208.21433176 122.24389062 211.31457268 125.36328125 214.7734375 C125.88470703 215.38380859 126.40613281 215.99417969 126.94335938 216.62304688 C128.40754293 218.24443365 129.78277415 219.67699976 131.55078125 220.9609375 C134.060411 220.98578217 134.060411 220.98578217 136.55078125 219.9609375 C148.60515533 219.11184187 159.06314539 220.32486651 168.703125 228.203125 C176.86429608 235.96745267 180.73384389 244.23362956 181.546875 255.42578125 C181.56360687 266.28476467 176.97033518 276.17040588 169.55078125 283.9609375 C168.68582031 284.55003906 167.82085937 285.13914062 166.9296875 285.74609375 C164.30229299 287.75936473 164.30229299 287.75936473 163.984375 290.80859375 C163.98566406 291.86949219 163.98695313 292.93039062 163.98828125 294.0234375 C163.47718038 305.44654204 159.60076042 313.81051296 151.55078125 321.9609375 C137.4605992 333.92578482 118.57461353 336.55414819 100.73828125 336.3984375 C99.67268982 336.39537094 99.67268982 336.39537094 98.58557129 336.39224243 C80.41994327 336.3077995 63.18911543 333.13482731 45.55078125 328.9609375 C45.31069336 329.67822021 45.07060547 330.39550293 44.82324219 331.13452148 C37.13046716 353.90347109 28.99183505 377.17091343 13.55078125 395.9609375 C12.8134375 396.87746094 12.07609375 397.79398437 11.31640625 398.73828125 C2.14948278 409.54679917 -9.31886966 417.65820635 -23.66796875 419.19921875 C-36.71700232 419.62375923 -47.95455832 414.26298028 -57.78125 406 C-76.47065519 388.39071805 -86.5572852 363.42700339 -94.55126953 339.59423828 C-95.77089454 336.01760008 -97.0989653 332.49010463 -98.44921875 328.9609375 C-99.06740479 329.10192871 -99.68559082 329.24291992 -100.32250977 329.38818359 C-103.21740986 330.04427139 -106.11451557 330.69009885 -109.01171875 331.3359375 C-109.98302734 331.55765625 -110.95433594 331.779375 -111.95507812 332.0078125 C-125.55138683 335.01937274 -138.9346717 336.37751635 -152.82421875 336.3359375 C-153.54533844 336.33506134 -154.26645813 336.33418518 -155.00942993 336.33328247 C-173.05155092 336.26110699 -192.26309594 333.6873726 -205.99609375 320.61328125 C-214.43768569 311.01437429 -217.67079668 300.68781971 -217.44921875 287.9609375 C-213.77532612 254.92870641 -192.39150893 229.31406868 -170.44921875 205.9609375 C-171.76600874 203.07344734 -173.20922681 200.91946485 -175.3828125 198.61328125 C-175.94935547 198.00806641 -176.51589844 197.40285156 -177.09960938 196.77929688 C-177.68935547 196.15861328 -178.27910156 195.53792969 -178.88671875 194.8984375 C-179.47259766 194.27388672 -180.05847656 193.64933594 -180.66210938 193.00585938 C-183.2205923 190.2847487 -185.79864797 187.59271341 -188.44921875 184.9609375 C-189.43921875 185.2909375 -190.42921875 185.6209375 -191.44921875 185.9609375 C-203.80342531 186.81633659 -213.59449015 185.73652405 -223.56640625 177.72265625 C-231.77858833 170.03864356 -235.7202593 161.97769667 -236.4453125 150.82421875 C-236.46091552 139.3872036 -232.27609994 130.16961777 -224.44921875 121.9609375 C-219.0807977 117.9609375 -219.0807977 117.9609375 -216.44921875 117.9609375 C-216.53171875 116.7028125 -216.61421875 115.4446875 -216.69921875 114.1484375 C-216.63348421 103.66377876 -211.68193344 95.27086978 -204.44921875 87.9609375 C-201.61286789 85.592117 -198.690952 83.72723262 -195.44921875 81.9609375 C-194.62808594 81.50976562 -193.80695313 81.05859375 -192.9609375 80.59375 C-180.36288502 74.28539187 -166.83374723 73.40642333 -153.01171875 73.5234375 C-152.27853424 73.52548187 -151.54534973 73.52752625 -150.78994751 73.52963257 C-132.79406084 73.61078404 -115.92271258 76.8591865 -98.44921875 80.9609375 C-98.18294678 80.19652344 -97.9166748 79.43210937 -97.64233398 78.64453125 C-73.80284456 10.43496565 -73.80284456 10.43496565 -45.38671875 -4.4140625 C-29.49926962 -11.80544212 -14.51516885 -9.95685967 0 0 Z M-55.4609375 29.0859375 C-62.31193925 38.9922976 -67.26514082 49.43292258 -71.76171875 60.5859375 C-72.17019043 61.59793213 -72.57866211 62.60992676 -72.99951172 63.65258789 C-75.99438982 71.30349821 -78.30726521 79.03666662 -80.44921875 86.9609375 C-79.72669922 87.21149902 -79.00417969 87.46206055 -78.25976562 87.72021484 C-74.82024424 88.91796353 -71.38420098 90.12523059 -67.94921875 91.3359375 C-67.3226236 91.55625641 -66.69602844 91.77657532 -66.05044556 92.00357056 C-55.90369367 95.58315014 -45.97268361 99.5250698 -36.1796875 103.99951172 C-29.91183034 106.75600438 -26.01051055 107.68440307 -19.37963867 105.17895508 C-16.95997004 104.17954379 -14.58129052 103.10932465 -12.19921875 102.0234375 C0.49421481 96.39590361 13.49684947 91.6777047 26.55078125 86.9609375 C23.60570741 61.35887512 8.74052169 30.70149676 -11.51171875 14.5234375 C-29.09552096 2.18331388 -44.18436345 14.26142332 -55.4609375 29.0859375 Z M-194.94921875 104.4609375 C-196.60381734 107.21860181 -197.58633514 109.86893791 -198.44921875 112.9609375 C-197.30646484 113.19876953 -197.30646484 113.19876953 -196.140625 113.44140625 C-189.17241383 115.01599579 -183.43352805 117.05382647 -177.44921875 120.9609375 C-176.56234375 121.5178125 -175.67546875 122.0746875 -174.76171875 122.6484375 C-167.10011851 130.31003774 -163.58752445 140.28066436 -163.44921875 150.9609375 C-164.18839669 159.39695246 -166.79297515 165.97657209 -171.44921875 172.9609375 C-171.13641388 176.41168725 -169.63479598 178.18141535 -167.2890625 180.6328125 C-166.34643555 181.62861328 -166.34643555 181.62861328 -165.38476562 182.64453125 C-164.72541016 183.32644531 -164.06605469 184.00835937 -163.38671875 184.7109375 C-162.72349609 185.40832031 -162.06027344 186.10570312 -161.37695312 186.82421875 C-159.7407839 188.54278499 -158.0981362 190.25461399 -156.44921875 191.9609375 C-152.87311174 190.27449398 -150.45230216 188.25717934 -147.57421875 185.5234375 C-137.8620142 176.48951945 -127.14289874 168.66834856 -116.51489258 160.75634766 C-111.73511852 157.64023474 -111.73511852 157.64023474 -109.92431641 152.68896484 C-109.73332124 151.22544924 -109.54664701 149.76136606 -109.36328125 148.296875 C-109.15236397 146.68228903 -108.94142573 145.06770579 -108.73046875 143.453125 C-108.40441919 140.91750743 -108.08004915 138.38168374 -107.75683594 135.84570312 C-106.51566814 126.15460348 -105.11084596 116.59560401 -103.01318359 107.04931641 C-102.50430999 104.26262763 -102.33633934 101.78292284 -102.44921875 98.9609375 C-129.58585017 91.39952818 -172.55246095 82.0641797 -194.94921875 104.4609375 Z M49.55078125 98.9609375 C50.22286041 106.93785145 51.49008897 114.70891119 52.99755859 122.56616211 C53.96957861 127.83968358 54.66559086 132.93730027 54.84765625 138.30078125 C55.17314749 150.40090087 55.17314749 150.40090087 61.390625 160.30078125 C65.17709114 163.43554801 69.21666795 166.09641524 73.41601562 168.64306641 C76.07300526 170.28332602 78.46169142 172.15639031 80.86328125 174.1484375 C81.60320312 174.74398437 82.343125 175.33953125 83.10546875 175.953125 C86.25248304 178.5370952 89.37516233 181.14876879 92.48828125 183.7734375 C93.04491455 184.24225342 93.60154785 184.71106934 94.17504883 185.1940918 C96.73137699 187.36196794 99.23646095 189.53372353 101.55078125 191.9609375 C119.3531861 184.8813765 135.15358812 153.53947061 142.55078125 136.9609375 C145.95883569 128.96838278 146.52458805 120.55335046 145.55078125 111.9609375 C142.3249249 104.30066452 136.84888835 99.64813447 129.55078125 95.9609375 C104.55495866 86.47976342 74.62586949 92.48676662 49.55078125 98.9609375 Z M-84.44921875 104.9609375 C-86.75500397 113.48447224 -88.3671254 121.97692569 -89.63671875 130.7109375 C-89.81396484 131.896875 -89.99121094 133.0828125 -90.17382812 134.3046875 C-90.60420409 137.18936964 -91.02924858 140.07472538 -91.44921875 142.9609375 C-84.95412527 139.45862244 -78.52920608 135.87789618 -72.19921875 132.0859375 C-64.41105408 127.45809785 -56.48206917 123.14690613 -48.44921875 118.9609375 C-50.87265141 116.14570144 -53.21980473 115.06156602 -56.67578125 113.76953125 C-57.70832031 113.38216797 -58.74085938 112.99480469 -59.8046875 112.59570312 C-60.88363281 112.20060547 -61.96257812 111.80550781 -63.07421875 111.3984375 C-64.12996094 110.99947266 -65.18570313 110.60050781 -66.2734375 110.18945312 C-72.28962326 107.95668034 -78.14874237 106.18272799 -84.44921875 104.9609375 Z M16.36328125 109.2109375 C15.25146484 109.60667969 14.13964844 110.00242187 12.99414062 110.41015625 C6.9564112 112.59074533 1.21832551 114.94378329 -4.44921875 117.9609375 C-1.66574012 120.14357362 1.13744742 121.90825509 4.26171875 123.5625 C5.17083008 124.04879883 6.07994141 124.53509766 7.01660156 125.03613281 C7.97663086 125.54756836 8.93666016 126.05900391 9.92578125 126.5859375 C17.89233249 130.86635527 25.5705148 135.35702568 33.06640625 140.4140625 C35.34598153 142.13712365 35.34598153 142.13712365 37.55078125 141.9609375 C37.9159692 134.45117501 36.53357306 127.44171878 35.11328125 120.0859375 C34.88318359 118.85101563 34.65308594 117.61609375 34.41601562 116.34375 C33.50176972 110.48881934 33.50176972 110.48881934 31.55078125 104.9609375 C26.22578684 104.9609375 21.32568597 107.4069408 16.36328125 109.2109375 Z M-75.47998047 154.14550781 C-78.12408979 155.76214956 -80.7851524 157.3451213 -83.453125 158.921875 C-84.82847618 159.76553991 -86.20233962 160.61163837 -87.57421875 161.4609375 C-88.17758057 161.80914551 -88.78094238 162.15735352 -89.40258789 162.51611328 C-91.27148587 163.63731271 -91.27148587 163.63731271 -93.44921875 165.9609375 C-94.87897846 173.2290635 -94.59361423 180.64306267 -94.58203125 188.0234375 C-94.58270635 189.38289406 -94.58367809 190.74235049 -94.58493042 192.10180664 C-94.5863977 194.93930215 -94.58428418 197.77676601 -94.57958984 200.61425781 C-94.57389315 204.2318626 -94.57717737 207.84939317 -94.58316231 211.46699524 C-94.58679419 214.27071684 -94.58561731 217.07442116 -94.58303452 219.87814331 C-94.58205312 221.85439096 -94.5850637 223.83063931 -94.58816528 225.80688477 C-95.25040577 236.24454782 -95.25040577 236.24454782 -92.0925293 245.68847656 C-91.512854 246.03104492 -90.93317871 246.37361328 -90.3359375 246.7265625 C-89.67609863 247.13495361 -89.01625977 247.54334473 -88.33642578 247.96411133 C-87.61052246 248.37556396 -86.88461914 248.7870166 -86.13671875 249.2109375 C-85.37472168 249.67072998 -84.61272461 250.13052246 -83.82763672 250.60424805 C-82.20181947 251.58181728 -80.56908048 252.54795227 -78.93017578 253.50341797 C-76.53431797 254.91094317 -74.17507407 256.36480631 -71.8203125 257.83984375 C-62.11270008 263.87356961 -52.14042271 269.36145049 -42.01171875 274.6484375 C-40.84398926 275.26114502 -39.67625977 275.87385254 -38.47314453 276.50512695 C-37.37341309 277.07191162 -36.27368164 277.63869629 -35.140625 278.22265625 C-33.67411499 278.98002075 -33.67411499 278.98002075 -32.17797852 279.75268555 C-28.55033526 281.35894899 -25.98277403 282.47549728 -22.11938477 281.17919922 C-20.92333618 280.54135498 -20.92333618 280.54135498 -19.703125 279.890625 C-18.79473877 279.41310791 -17.88635254 278.93559082 -16.95043945 278.44360352 C-15.98066162 277.91307373 -15.01088379 277.38254395 -14.01171875 276.8359375 C-12.9961792 276.29187256 -11.98063965 275.74780762 -10.93432617 275.18725586 C-1.19699628 269.92287776 8.37887851 264.39834356 17.81933594 258.61962891 C20.64256442 256.90520145 23.49032641 255.23669721 26.33984375 253.56640625 C28.18237509 252.45020054 30.02357285 251.33178982 31.86328125 250.2109375 C33.15431763 249.46952515 33.15431763 249.46952515 34.47143555 248.71313477 C35.25687744 248.22256592 36.04231934 247.73199707 36.8515625 247.2265625 C37.54419189 246.81180664 38.23682129 246.39705078 38.95043945 245.96972656 C43.58219023 240.15583711 41.69515178 228.34074287 41.68359375 221.2734375 C41.68455048 219.97575439 41.6855072 218.67807129 41.68649292 217.34106445 C41.68795841 214.6078979 41.68585256 211.87476426 41.68115234 209.14160156 C41.67545576 205.66200642 41.67874096 202.18248844 41.68472481 198.70289612 C41.6892349 195.35140395 41.68606466 191.99993185 41.68359375 188.6484375 C41.6866301 186.79182495 41.6866301 186.79182495 41.68972778 184.89770508 C42.43775297 173.93777627 42.43775297 173.93777627 38.99259949 164.31687927 C37.0520687 162.83173641 35.06086623 161.64914866 32.92578125 160.4609375 C32.15451904 159.99937256 31.38325684 159.53780762 30.58862305 159.06225586 C29.00561822 158.11836952 27.41495769 157.18720408 25.81689453 156.26904297 C23.80643048 155.10851007 21.82875192 153.91208142 19.859375 152.68359375 C-21.37921195 127.07989023 -35.12471144 129.382749 -75.47998047 154.14550781 Z M-119.32421875 184.8984375 C-124.48895802 189.31451861 -129.70987459 193.63945118 -135.01171875 197.890625 C-137.63640249 200.11992369 -140.04530604 202.49692697 -142.44921875 204.9609375 C-136.89039778 210.861256 -130.75835356 215.88839312 -124.44921875 220.9609375 C-123.4087542 221.8173098 -122.36970145 222.67540015 -121.33203125 223.53515625 C-120.33945313 224.35628906 -119.346875 225.17742187 -118.32421875 226.0234375 C-117.41414063 226.77753906 -116.5040625 227.53164063 -115.56640625 228.30859375 C-113.76543846 230.06347897 -113.76543846 230.06347897 -112.44921875 229.9609375 C-112.44921875 213.4609375 -112.44921875 196.9609375 -112.44921875 179.9609375 C-114.82085206 179.9609375 -117.51736356 183.34304657 -119.32421875 184.8984375 Z M59.55078125 179.9609375 C59.55078125 196.1309375 59.55078125 212.3009375 59.55078125 228.9609375 C63.47815865 226.9972488 66.6989025 224.66868425 70.11328125 221.9609375 C70.72445801 221.47906982 71.33563477 220.99720215 71.96533203 220.50073242 C77.73221884 215.90536161 83.18113582 211.01278759 88.55078125 205.9609375 C84.66801731 196.49130768 68.7686281 184.56986092 59.55078125 179.9609375 Z M-158.296875 219.54296875 C-164.09636472 225.38337198 -169.39277482 231.46809817 -174.44921875 237.9609375 C-174.87992676 238.50459961 -175.31063477 239.04826172 -175.75439453 239.60839844 C-181.54466698 246.95734963 -186.55264127 254.50712155 -190.94921875 262.7734375 C-191.56301392 263.9190918 -191.56301392 263.9190918 -192.18920898 265.08789062 C-197.43846426 275.29410435 -201.43701938 287.35937217 -198.2734375 298.8046875 C-195.0378259 307.26941549 -189.09966091 310.67590311 -181.27734375 314.515625 C-172.43422163 318.14062465 -163.26447613 318.34792793 -153.82421875 318.3359375 C-152.56037354 318.33505127 -151.29652832 318.33416504 -149.99438477 318.33325195 C-133.88264484 318.13419189 -117.92669942 315.44126085 -102.44921875 310.9609375 C-103.30397187 302.20211896 -104.77329009 293.5536301 -106.2381897 284.87985229 C-107.45970936 277.63471844 -108.58386462 270.4710279 -109.00268555 263.12573242 C-109.28423096 258.70972602 -109.52914699 255.18635175 -112.2265625 251.59375 C-114.83987872 249.42830661 -117.55356995 247.73247694 -120.44921875 245.9609375 C-123.15361813 244.03163956 -125.79955496 242.02697808 -128.44921875 240.0234375 C-129.14096191 239.50845703 -129.83270508 238.99347656 -130.54541016 238.46289062 C-136.1491558 234.27103918 -141.33966366 229.74202119 -146.44921875 224.9609375 C-147.94222987 223.59906924 -149.44180306 222.24434437 -150.94921875 220.8984375 C-151.57828125 220.32996094 -152.20734375 219.76148438 -152.85546875 219.17578125 C-155.27591432 217.33078475 -156.00674065 217.58207147 -158.296875 219.54296875 Z M99.17578125 220.8984375 C89.74977138 229.22917157 79.81936775 236.92276021 69.8828125 244.62890625 C69.16585205 245.20294189 68.4488916 245.77697754 67.71020508 246.3684082 C65.55078125 247.9609375 65.55078125 247.9609375 63.3190918 249.09057617 C60.74910281 250.49954724 59.31392815 251.59554951 57.55078125 253.9609375 C55.88004603 259.86290226 55.3168974 265.80720912 54.73828125 271.8984375 C54.47555579 274.3352586 54.20257828 276.77075029 53.92752075 279.20620728 C53.74723326 280.80595711 53.57132154 282.40620637 53.39987183 284.00692749 C52.69311666 290.3906369 51.52502566 296.59517119 50.13012695 302.86157227 C49.60769312 305.65647219 49.43512064 308.12907533 49.55078125 310.9609375 C75.96504026 318.32106342 109.96144628 324.89225593 135.23828125 311.1484375 C140.00981811 307.94331426 143.73444794 304.47982883 145.06640625 298.73828125 C145.32314522 296.82287338 145.44920932 294.89080417 145.55078125 292.9609375 C144.63296875 292.79078125 143.71515625 292.620625 142.76953125 292.4453125 C132.24311963 290.36656735 122.37903332 287.85679034 115.91796875 278.62890625 C109.48686232 268.26767922 107.31224141 258.59927197 109.8125 246.57421875 C110.89857453 242.7298597 112.58111382 239.41554952 114.55078125 235.9609375 C115.22132785 234.6295512 115.88846458 233.29643698 116.55078125 231.9609375 C114.40926578 229.62360857 112.26187092 227.29176357 110.11328125 224.9609375 C109.50162109 224.29320312 108.88996094 223.62546875 108.25976562 222.9375 C107.67646484 222.30585938 107.09316406 221.67421875 106.4921875 221.0234375 C105.95279541 220.43691406 105.41340332 219.85039062 104.85766602 219.24609375 C102.3769242 216.80659722 101.42928374 218.87028526 99.17578125 220.8984375 Z M-90.44921875 267.9609375 C-90.8144067 275.47069999 -89.43201056 282.48015622 -88.01171875 289.8359375 C-87.78162109 291.07085937 -87.55152344 292.30578125 -87.31445312 293.578125 C-86.40020722 299.43305566 -86.40020722 299.43305566 -84.44921875 304.9609375 C-77.01686825 303.5196536 -70.14892266 301.19696725 -63.07421875 298.5234375 C-61.99527344 298.12833984 -60.91632813 297.73324219 -59.8046875 297.32617188 C-58.77214844 296.93880859 -57.73960937 296.55144531 -56.67578125 296.15234375 C-55.27706787 295.62942749 -55.27706787 295.62942749 -53.85009766 295.09594727 C-51.49558335 293.98285625 -50.13445138 292.91862659 -48.44921875 290.9609375 C-49.57714844 290.38988281 -50.70507812 289.81882812 -51.8671875 289.23046875 C-62.14011739 283.95998029 -72.03230998 278.28839356 -81.76831055 272.07739258 C-82.61304932 271.54138428 -83.45778809 271.00537598 -84.328125 270.453125 C-85.07650635 269.97214355 -85.8248877 269.49116211 -86.59594727 268.99560547 C-88.38650991 267.79844812 -88.38650991 267.79844812 -90.44921875 267.9609375 Z M27.80078125 272.7109375 C17.29929984 279.25293289 6.458323 285.12934977 -4.44921875 290.9609375 C-2.02578609 293.77617356 0.32136723 294.86030898 3.77734375 296.15234375 C5.32615234 296.73338867 5.32615234 296.73338867 6.90625 297.32617188 C7.98519531 297.72126953 9.06414062 298.11636719 10.17578125 298.5234375 C11.75939453 299.12188477 11.75939453 299.12188477 13.375 299.73242188 C19.39118576 301.96519466 25.25030487 303.73914701 31.55078125 304.9609375 C33.41512989 298.09854783 34.96494871 291.20463751 36.23828125 284.2109375 C36.43514526 283.16691772 36.43514526 283.16691772 36.63598633 282.10180664 C37.47896064 277.32495219 37.66497184 272.81131868 37.55078125 267.9609375 C33.89468343 267.9609375 30.83075905 270.79578725 27.80078125 272.7109375 Z M-33.984375 304.796875 C-34.86343506 305.19729004 -35.74249512 305.59770508 -36.64819336 306.01025391 C-38.06563843 306.66646729 -38.06563843 306.66646729 -39.51171875 307.3359375 C-52.8847409 313.35942741 -66.59038116 318.18943469 -80.44921875 322.9609375 C-67.59045163 365.83555985 -67.59045163 365.83555985 -38.01171875 397.9609375 C-32.42312121 400.74553384 -27.09593167 401.72896596 -20.9453125 400.43359375 C-5.05232317 395.03644401 5.45112782 378.27364637 12.55078125 363.9609375 C16.97881935 354.54978557 20.71658118 344.87109903 24.05078125 335.0234375 C24.30617676 334.27223633 24.56157227 333.52103516 24.82470703 332.74707031 C25.95725584 329.28177341 26.55078125 326.64491133 26.55078125 322.9609375 C25.68090576 322.63931641 24.81103027 322.31769531 23.91479492 321.98632812 C19.85433393 320.48219541 15.79580497 318.97297217 11.73828125 317.4609375 C11.00958832 317.18971069 10.28089539 316.91848389 9.53012085 316.63903809 C-0.04726563 313.06830706 -9.55958922 309.41427793 -18.8762207 305.19726562 C-24.60037199 302.66559962 -28.2852789 302.12967625 -33.984375 304.796875 Z " fill="#3672B5" transform="translate(283.44921875,51.0390625)"/>
<path d="M0 0 C9.34231443 6.95971075 15.87439707 15.50428839 18.07421875 27.078125 C19.59334041 38.33087802 17.33961099 48.48799583 11.1875 58.06640625 C4.11666439 67.33534945 -5.10695745 72.86904863 -16.609375 74.421875 C-28.03546821 75.4791596 -38.47485745 72.35621806 -47.609375 65.421875 C-55.74261093 58.10196267 -61.00368862 48.65688022 -61.8125 37.66015625 C-62.00695814 25.52272749 -58.83196249 15.3479909 -50.60546875 6.19140625 C-36.89756452 -6.87892104 -16.52906289 -9.99661887 0 0 Z " fill="#44464A" transform="translate(278.609375,221.578125)"/>
<path d="M0 0 C9.08888481 0.42578559 18.57027823 5.52005339 24.79296875 12.0390625 C31.65234874 21.89735017 34.99136997 31.63101134 33.10546875 43.6640625 C31.48247114 51.32461122 28.70879039 56.8111271 22.79296875 62.0390625 C22.30183594 62.52117187 21.81070313 63.00328125 21.3046875 63.5 C13.55308742 70.78909411 5.23246456 73.76079454 -5.35522461 73.5625 C-15.75838888 73.02549833 -24.13891636 68.52443183 -31.15234375 60.93359375 C-38.29377405 52.25331969 -40.84611412 43.46333669 -39.9921875 32.20703125 C-38.50485868 22.07903024 -33.58102021 13.28826308 -25.51953125 6.9140625 C-17.12602296 2.16302007 -9.5967639 0.16985423 0 0 Z " fill="#434549" transform="translate(87.20703125,163.9609375)"/>
<path d="M0 0 C8.32648865 4.84852171 14.88760722 12.32732459 17.50390625 21.6875 C20.09011715 33.74290831 18.33150287 43.39243867 12 54 C8.9015074 58.73409033 5.08079358 61.60377446 0 64 C-0.73089844 64.36222656 -1.46179688 64.72445312 -2.21484375 65.09765625 C-12.4725879 69.73608513 -22.38034674 70.1047146 -32.98828125 66.35546875 C-42.6252882 62.01819065 -48.74868285 54.70677418 -52.8125 45.0625 C-56.0633736 35.27117834 -55.52653546 25.00860514 -51.1875 15.625 C-49.26924339 12.15521232 -46.98416769 9.63717145 -44 7 C-43.50886719 6.51789063 -43.01773437 6.03578125 -42.51171875 5.5390625 C-30.61387225 -5.64888863 -14.50863154 -7.4996308 0 0 Z " fill="#44464A" transform="translate(446,275)"/>
</svg>
