<?xml version="1.0" encoding="UTF-8"?>
<svg version="1.1" xmlns="http://www.w3.org/2000/svg" width="250" height="250">
<path d="M0 0 C5.67077995 2.06642707 9.22610648 1.92076705 14.99316406 -0.12939453 C18.68121008 -1.28335136 22.22087286 -1.55699064 26.05175781 -1.73095703 C26.72916016 -1.76962891 27.4065625 -1.80830078 28.10449219 -1.84814453 C31.20949709 -2.0148562 34.26025933 -2.09999779 37.36816406 -1.97314453 C42.76888826 -2.16461963 47.84998792 -3.44120477 53.11425781 -4.60595703 C74.72773243 -9.11670387 94.32180028 -7.42419925 113.67675781 4.01904297 C123.58690714 10.61144665 131.31349767 18.49176254 135.11425781 29.89404297 C136.25253464 44.90359667 135.26775085 59.44384862 131.11425781 73.89404297 C130.88351563 74.70728027 130.65277344 75.52051758 130.41503906 76.35839844 C125.6359436 92.74702936 119.08125272 109.32836597 110.11425781 123.89404297 C111.11585938 123.78705078 112.11746094 123.68005859 113.14941406 123.56982422 C126.6939657 122.2805149 126.6939657 122.2805149 132.11425781 125.89404297 C134.78488258 128.15380239 135.9065436 129.73985741 136.52832031 133.19482422 C136.82938258 138.41587777 136.2520576 142.205321 132.83300781 146.24169922 C120.82442888 157.78631033 105.37972174 161.18858859 89.11425781 160.89404297 C89.12996826 161.51746582 89.14567871 162.14088867 89.16186523 162.78320312 C89.5737717 181.64747625 89.54389743 198.3737112 76.13769531 213.03857422 C68.12842072 220.38298625 59.18138294 223.4650367 48.43847656 223.26904297 C41.7467755 222.51416247 36.38523514 219.61574965 31.80175781 214.70654297 C22.3590318 202.35631092 19.90982515 187.62150211 20.05175781 172.45654297 C20.05626953 171.53421875 20.06078125 170.61189453 20.06542969 169.66162109 C20.07711844 167.40569249 20.09350326 165.1499033 20.11425781 162.89404297 C19.28438354 163.21236084 19.28438354 163.21236084 18.43774414 163.53710938 C13.08955466 165.47191057 8.47650501 166.38135498 2.80175781 166.26904297 C2.07190674 166.26251709 1.34205566 166.25599121 0.59008789 166.24926758 C-6.58609502 166.07373958 -13.20364954 164.5013285 -19.97949219 162.17529297 C-22.49598189 161.8040076 -23.43841608 162.50231162 -25.57324219 163.83154297 C-30.12823257 166.23954158 -33.8040699 166.84475318 -38.88574219 165.89404297 C-51.1376434 161.81633965 -57.28219775 152.00080549 -62.90820312 140.94677734 C-66.14321034 134.15358537 -68.55235852 127.03662673 -70.88574219 119.89404297 C-71.14597168 119.1020752 -71.40620117 118.31010742 -71.67431641 117.49414062 C-81.54799129 86.80873757 -91.4007778 48.2545916 -77.69824219 17.51904297 C-71.04655116 5.47299276 -60.83069473 -2.00672206 -47.88574219 -6.10595703 C-31.45647119 -9.34202556 -15.37504625 -5.82126481 0 0 Z " fill="#FAFCFD" transform="translate(93.8857421875,22.10595703125)"/>
<path d="M0 0 C0.82886719 0.24363281 1.65773438 0.48726562 2.51171875 0.73828125 C18.74754786 6.25480289 29.05072813 19.73887825 36.75 34.3125 C38 37 38 37 38 39 C37.14277344 39.21914062 36.28554687 39.43828125 35.40234375 39.6640625 C27.03374762 41.98500348 20.88746207 44.13295401 16.34765625 51.78515625 C12.27874416 61.49157553 15.18622267 72.65250655 19 82 C23.56988815 92.2401743 28.75550938 103.38532715 35.734375 112.1875 C36.15203125 112.785625 36.5696875 113.38375 37 114 C36.4375 116.25 36.4375 116.25 35 119 C34.30896943 120.35236843 33.62170571 121.70666588 32.9375 123.0625 C32.59589844 123.71347656 32.25429687 124.36445313 31.90234375 125.03515625 C30.37787733 128.35466539 29.87635193 131.44030953 29.82641602 135.07495117 C29.81292618 135.86645065 29.79943634 136.65795013 29.78553772 137.47343445 C29.77509933 138.32138077 29.76466095 139.16932709 29.75390625 140.04296875 C29.72095185 141.85742641 29.68774049 143.67187942 29.65429688 145.48632812 C29.6070513 148.33207843 29.56263426 151.17781209 29.52319336 154.02368164 C29.48314488 156.78031179 29.43166915 159.53655655 29.37890625 162.29296875 C29.3704921 163.13079391 29.36207794 163.96861908 29.35340881 164.83183289 C29.13118705 175.61123579 26.74230368 184.73087947 19.296875 192.859375 C13.49561779 198.13799643 7.32168542 200.76438488 -0.57421875 200.46484375 C-4.90768584 199.63443701 -7.34352732 197.42901831 -10 194 C-16.34913986 183.56444566 -18.11775072 173.37644247 -18.17578125 161.33984375 C-18.19896388 159.47589997 -18.22308057 157.61196762 -18.24804688 155.74804688 C-18.28321351 152.8361016 -18.31255929 149.92458356 -18.32592773 147.01245117 C-18.34142257 144.18357159 -18.38161471 141.35590218 -18.42578125 138.52734375 C-18.42387283 137.66157211 -18.42196442 136.79580048 -18.41999817 135.90379333 C-18.5295147 130.47260922 -19.3627506 127.29492091 -23 123 C-25.51874377 121.26343361 -25.51874377 121.26343361 -28.25 120.125 C-29.14203125 119.71507812 -30.0340625 119.30515625 -30.953125 118.8828125 C-31.62859375 118.59148437 -32.3040625 118.30015625 -33 118 C-31.4169521 113.14292122 -29.75372938 108.33775478 -27.9375 103.5625 C-22.17416247 87.48698383 -21.44756076 67.78618462 -27.9140625 51.73046875 C-30.97998604 45.81049444 -35.62251885 42.64829239 -41.765625 40.53515625 C-48.94417505 38.81581821 -55.99347579 40.10451519 -63 42 C-62.23737976 28.78124911 -55.18677605 15.52417529 -45.5625 6.5625 C-41.64249943 3.30803433 -37.73304415 0.87349664 -33 -1 C-31.96875 -1.4125 -30.9375 -1.825 -29.875 -2.25 C-19.60527434 -4.23768884 -9.88879364 -3.16718006 0 0 Z " fill="#0377BD" transform="translate(143,34)"/>
<path d="M0 0 C-1.30629174 2.85675015 -2.38733567 4.40578023 -4.625 6.75 C-20.26405318 24.61225191 -21.26391903 48.27321747 -21.45996094 70.69946289 C-21.4865533 73.01607961 -21.52746185 75.33257827 -21.58300781 77.64868164 C-21.936789 92.6257737 -22.05246829 104.59008875 -11.91015625 116.44213867 C-10.34169421 118.08293069 -8.76335104 119.57431193 -7 121 C-8.52852925 124.53675651 -10.6416389 126.99564746 -13.25 129.8125 C-16.48994245 133.33327214 -19.62343023 136.88993086 -22.61328125 140.625 C-25.01717609 143.00858023 -27.47096631 143.89178856 -30.75 144.5625 C-36.55106703 143.55846917 -40.02108354 139.5181712 -43.5625 135.01171875 C-56.88683959 114.62692747 -62.64925672 87.80577878 -66.62548828 64.14599609 C-66.93774533 62.35672657 -67.30406036 60.57699753 -67.68359375 58.80078125 C-71.10714759 42.24966922 -71.12027954 22.72439812 -61.65625 8.25 C-47.0034216 -11.65572915 -20.2786726 -10.72311627 0 0 Z " fill="#0378BD" transform="translate(90,33)"/>
<path d="M0 0 C11.84324245 5.24510314 21.97241308 11.24486059 28.06933594 23.18554688 C32.29351243 39.46782718 26.6750054 58.81687633 21.06933594 74.18554688 C20.65772217 75.3234668 20.65772217 75.3234668 20.23779297 76.484375 C15.28084341 89.97692318 8.97307706 102.59232883 2.06933594 115.18554688 C0.74933594 114.52554688 -0.57066406 113.86554688 -1.93066406 113.18554688 C-1.44122416 110.05313152 -0.6923481 107.66125176 0.63183594 104.74804688 C3.30670707 97.884719 2.61292949 89.890346 1.56152344 82.72460938 C1.04086497 78.98082706 0.93658549 75.4013879 0.94433594 71.62304688 C0.94175781 70.36363281 0.93917969 69.10421875 0.93652344 67.80664062 C1.05814716 64.49060563 1.49838449 61.44689075 2.06933594 58.18554688 C3.50944355 41.37743371 -2.84059512 29.41317531 -13.05957031 16.49414062 C-19.59176984 8.84013224 -27.29450408 3.2647273 -35.93066406 -1.81445312 C-26.98700001 -7.78482461 -9.1051559 -3.84102176 0 0 Z " fill="#0579BD" transform="translate(189.9306640625,29.814453125)"/>
<path d="M0 0 C1.9375 1.625 1.9375 1.625 2.9375 3.625 C-0.3625 3.955 -3.6625 4.285 -7.0625 4.625 C-6.70755955 7.25155933 -6.33788036 9.20468261 -4.875 11.4375 C-2.22561918 13.17330123 -0.16264468 12.88334539 2.9375 12.625 C3.9275 12.295 4.9175 11.965 5.9375 11.625 C7.0272694 16.94307469 7.12098582 22.0969191 7.125 27.5 C7.13724609 28.35980469 7.14949219 29.21960938 7.16210938 30.10546875 C7.18349593 39.50129561 4.45175521 47.34529438 1.3125 56.125 C0.98765625 57.0428125 0.6628125 57.960625 0.328125 58.90625 C-0.46548026 61.14701779 -1.26241079 63.38654098 -2.0625 65.625 C-8.56136079 64.61990378 -13.70053357 61.47237055 -17.90625 56.40234375 C-22.80863954 49.20496303 -24.36014547 43.80282515 -24.2578125 35.16796875 C-24.2549826 34.26500565 -24.25215271 33.36204254 -24.24923706 32.43171692 C-24.23807607 29.55850766 -24.21297897 26.68561445 -24.1875 23.8125 C-24.17746493 21.86003056 -24.16834 19.90755621 -24.16015625 17.95507812 C-24.13815008 13.17826434 -24.10364831 8.40168569 -24.0625 3.625 C-16.4363302 -0.80106505 -8.67114106 -3.89316537 0 0 Z " fill="#0478BD" transform="translate(102.0625,85.375)"/>
<path d="M0 0 C2.41869578 1.1589584 4.12322096 2.12322096 6 4 C6.04080783 5.99958364 6.04254356 8.00045254 6 10 C-3.5698968 15.70513079 -13.88066166 16.50851095 -24.859375 14.46875 C-27 13.75 -27 13.75 -30 12 C-30.6875 9.890625 -30.6875 9.890625 -31 8 C-26.98652223 5.28294541 -22.97119431 4.00465429 -18.3125 2.875 C-4.83067012 -0.49224445 -4.83067012 -0.49224445 0 0 Z " fill="#097ABE" transform="translate(109,162)"/>
<path d="M0 0 C1.78125 0.3671875 1.78125 0.3671875 4 1 C12.70238477 1.38129005 21.34387586 0.8878076 30 0 C29.2578125 4.7421875 29.2578125 4.7421875 26.9375 7.0625 C16.89226046 13.68808353 6.068947 16.61367527 -6 16 C-6.3464451 10.34139667 -5.60428359 6.91920235 -3 2 C-2.01 1.34 -1.02 0.68 0 0 Z " fill="#097BBE" transform="translate(189,156)"/>
<path d="M0 0 C0 15.51 0 31.02 0 47 C-0.66 47 -1.32 47 -2 47 C-3.62757993 43.60539735 -5.25160566 40.20910606 -6.875 36.8125 C-7.33519531 35.85279297 -7.79539063 34.89308594 -8.26953125 33.90429688 C-8.71425781 32.97294922 -9.15898437 32.04160156 -9.6171875 31.08203125 C-10.22989502 29.80162964 -10.22989502 29.80162964 -10.85498047 28.49536133 C-13.22836193 23.32300912 -14.22666806 19.78003545 -14 14 C-12.9275 14.061875 -11.855 14.12375 -10.75 14.1875 C-7.1112383 14.25150623 -7.1112383 14.25150623 -4.5625 12.8125 C-2.45588365 10.76766232 -2.45588365 10.76766232 -3 6 C-6.3 5.67 -9.6 5.34 -13 5 C-8.5844608 0.27994085 -6.7573339 0 0 0 Z " fill="#0779BE" transform="translate(182,84)"/>
<path d="M0 0 C-0.33 8.25 -0.66 16.5 -1 25 C-1.33 25 -1.66 25 -2 25 C-2.33 18.73 -2.66 12.46 -3 6 C-6.3 5.67 -9.6 5.34 -13 5 C-8.5844608 0.27994085 -6.7573339 0 0 0 Z " fill="#2B8DC7" transform="translate(182,84)"/>
</svg>
