<?xml version="1.0" encoding="UTF-8"?>
<svg version="1.1" xmlns="http://www.w3.org/2000/svg" width="512" height="512">
<path d="M0 0 C4.30276066 3.36040992 8.16825366 7.11905863 12 11 C12.79019531 11.79148437 13.58039063 12.58296875 14.39453125 13.3984375 C25.07407123 24.65777737 32.5276241 38.0099595 39 52 C39.33773438 52.72622559 39.67546875 53.45245117 40.0234375 54.20068359 C43.79387081 62.35991546 47.32686438 70.58937138 50.5 79 C50.75539551 79.67675781 51.01079102 80.35351562 51.27392578 81.05078125 C53 85.73774596 53 85.73774596 53 88 C53.59200195 87.88930176 54.18400391 87.77860352 54.79394531 87.66455078 C91.85675716 80.80186057 136.68742014 74.76364317 170 97 C182.74549812 106.59197281 191.19615186 119.15526897 194 135 C194.97852024 148.40640211 194.47673593 161.27170817 190 174 C189.76925781 174.66628418 189.53851563 175.33256836 189.30078125 176.01904297 C181.42395 198.11272109 167.83063612 216.70232154 152.98046875 234.58203125 C150.20518682 237.97039321 147.58350768 241.46414047 145 245 C145.62003906 245.63421875 146.24007813 246.2684375 146.87890625 246.921875 C173.22131549 274.68301661 194.66608335 308.41843574 194.21484375 347.62109375 C194.05320797 353.45905699 193.28014428 358.5972485 191 364 C190.64808594 364.84304688 190.29617188 365.68609375 189.93359375 366.5546875 C182.3716755 382.97627894 168.91335199 393.22769494 152.4140625 399.8359375 C120.25753861 410.80006121 84.61795575 406.76342906 52 400 C51.7421875 401.29421875 51.484375 402.5884375 51.21875 403.921875 C50.10430165 408.91351254 48.43505012 413.5241776 46.5 418.25 C45.97768799 419.533302 45.97768799 419.533302 45.44482422 420.8425293 C39.00206311 436.44161426 32.05925355 451.38642017 22 465 C21.32195312 465.92039062 20.64390625 466.84078125 19.9453125 467.7890625 C8.12506925 483.12214912 -7.31516046 496.61173384 -27 500 C-38.70727433 501.07069995 -50.09732801 500.67257371 -61 496 C-62.46566406 495.41605469 -62.46566406 495.41605469 -63.9609375 494.8203125 C-94.61708113 481.22218055 -112.55205176 445.6425886 -124 416 C-129 402.9041987 -129 402.9041987 -129 400 C-129.60247559 400.11069824 -130.20495117 400.22139648 -130.82568359 400.33544922 C-168.70230059 407.24367259 -211.82271971 413.13301116 -246 391 C-258.70878962 381.26788341 -267.4416904 368.96056109 -270 353 C-273.27235823 315.82890317 -254.25403995 284.07429266 -231.11328125 256.44921875 C-227.78599505 252.5930109 -224.42005888 248.77417942 -221 245 C-224.09703216 240.73111784 -227.2853434 236.63345763 -230.74707031 232.65234375 C-254.02403384 205.79557789 -272.22937576 174.08050551 -270.22314453 137.60986328 C-269.04445196 123.8240607 -262.48886745 111.44104865 -252.4453125 102.02734375 C-228.72352664 82.36024014 -196.4463773 80.03740161 -166.91796875 82.5703125 C-154.16210289 83.77016654 -141.51730392 85.22056716 -129 88 C-128.85304687 87.45214844 -128.70609375 86.90429688 -128.5546875 86.33984375 C-118.8448524 52.020599 -99.5282315 13.90828348 -67.90234375 -4.8359375 C-64.97913642 -6.38240847 -62.05542618 -7.73697936 -59 -9 C-58.18917969 -9.33902344 -57.37835938 -9.67804687 -56.54296875 -10.02734375 C-37.33183667 -16.59240778 -16.12027554 -11.40225949 0 0 Z M-66.41162109 39.74804688 C-76.14098589 52.56807404 -83.45503515 66.75813466 -89.5 81.625 C-89.83862061 82.45418945 -90.17724121 83.28337891 -90.52612305 84.13769531 C-90.83718994 84.93014648 -91.14825684 85.72259766 -91.46875 86.5390625 C-91.74138672 87.23209473 -92.01402344 87.92512695 -92.29492188 88.63916016 C-93.21611674 91.72363187 -93.59973178 94.81090648 -94 98 C-92.74231812 98.42128174 -92.74231812 98.42128174 -91.45922852 98.85107422 C-88.93615311 99.699268 -86.41470101 100.55148232 -83.89453125 101.40820312 C-80.97896599 102.39925562 -78.0579132 103.37147594 -75.1328125 104.33398438 C-68.28819696 106.61729986 -61.78718696 108.93976824 -55.43359375 112.4140625 C-47.3824287 116.70889066 -40.4398722 120.39427148 -31.21237183 117.69642639 C-24.17340731 115.30724011 -17.49674732 112.08945753 -10.84786987 108.78834534 C-4.41718911 105.61944771 2.15951348 103.34339653 9 101.1875 C10.02101807 100.85766113 11.04203613 100.52782227 12.09399414 100.18798828 C14.39288975 99.44812775 16.69427151 98.71821583 19 98 C15.41015849 78.30519447 3.7401888 56.30857018 -9 41 C-9.71800781 40.12085937 -10.43601562 39.24171875 -11.17578125 38.3359375 C-17.38576114 31.06414757 -24.89087017 23.9552579 -34.76171875 22.62890625 C-48.39307856 22.31951624 -58.00884451 29.34267151 -66.41162109 39.74804688 Z M-229.40625 129.41015625 C-234.97911332 135.74442822 -235.61594619 141.65519501 -235.3671875 149.83984375 C-233.63007663 176.1490654 -212.815613 200.48493675 -196 219 C-191.7263919 217.27574723 -188.64135766 214.21124754 -185.25 211.1875 C-179.8596598 206.45652457 -174.42473343 201.79335092 -168.875 197.25 C-168.27977539 196.75653076 -167.68455078 196.26306152 -167.07128906 195.75463867 C-166.46768555 195.26326416 -165.86408203 194.77188965 -165.2421875 194.265625 C-164.60684082 193.74154053 -163.97149414 193.21745605 -163.31689453 192.67749023 C-161 191 -161 191 -157.74169922 189.27758789 C-152.48598153 186.41594865 -148.25351025 183.85083663 -146.44384766 177.88330078 C-145.33986437 172.95048878 -144.84973251 167.96277481 -144.375 162.9375 C-144.17604547 161.23437784 -143.97164874 159.53188229 -143.76171875 157.83007812 C-143.45337669 155.31431335 -143.15082423 152.79904356 -142.87371826 150.27963257 C-142.12673833 143.53102357 -140.9427541 136.93507548 -139.57275391 130.28735352 C-139.07493939 127.43011887 -138.8814789 124.88800975 -139 122 C-142.62391565 121.34798517 -146.2493067 120.70454985 -149.875 120.0625 C-150.88820313 119.88009766 -151.90140625 119.69769531 -152.9453125 119.50976562 C-175.90051545 115.46317536 -211.14941163 111.10260444 -229.40625 129.41015625 Z M63 123 C63.77123661 132.57920412 65.40461289 141.99853964 67.08911133 151.453125 C68.10122224 157.19455891 69.08757734 162.85904442 69.36328125 168.69140625 C69.77161274 175.80224743 70.3456544 180.85060773 75.73046875 185.91015625 C79.54406502 189.06482206 83.57945097 191.82877338 87.73193359 194.515625 C90.8449508 196.55299256 93.74949048 198.77941415 96.6875 201.0625 C97.69941406 201.83464844 98.71132813 202.60679687 99.75390625 203.40234375 C104.36527519 207.01969689 108.72778459 210.94798935 113.06518555 214.88696289 C116.49404133 218.18782841 116.49404133 218.18782841 121 219 C122.97370172 217.05066497 124.73143474 215.12453847 126.5 213 C127.02754883 212.37351562 127.55509766 211.74703125 128.09863281 211.1015625 C142.62432091 193.54932805 160.94980441 169.01839593 160.24609375 145.2578125 C159.44910051 137.94571581 156.73470972 131.71671391 151 127 C126.39900485 111.51048453 89.68037414 114.37456398 63 123 Z M-104 132 C-105.5443347 137.1097335 -106.68323516 142.18571953 -107.625 147.4375 C-107.7590625 148.16904297 -107.893125 148.90058594 -108.03125 149.65429688 C-108.35724688 151.43563697 -108.679065 153.21774098 -109 155 C-105.29102741 153.60582632 -101.92161688 151.92181521 -98.48046875 149.9609375 C-97.45888672 149.38085938 -96.43730469 148.80078125 -95.38476562 148.203125 C-94.32966797 147.59984375 -93.27457031 146.9965625 -92.1875 146.375 C-91.11306641 145.76398438 -90.03863281 145.15296875 -88.93164062 144.5234375 C-86.28613924 143.01844115 -83.6423375 141.51054209 -81 140 C-83.11340464 137.88659536 -84.24985646 137.41564875 -87.02734375 136.4921875 C-87.81947266 136.22792969 -88.61160156 135.96367187 -89.42773438 135.69140625 C-90.67006836 135.28728516 -90.67006836 135.28728516 -91.9375 134.875 C-92.76185547 134.59785156 -93.58621094 134.32070312 -94.43554688 134.03515625 C-99.11598925 132.46499249 -99.11598925 132.46499249 -104 132 Z M15.9375 134.375 C15.00099609 134.69210938 14.06449219 135.00921875 13.09960938 135.3359375 C12.20951172 135.6453125 11.31941406 135.9546875 10.40234375 136.2734375 C9.58241943 136.55622559 8.76249512 136.83901367 7.91772461 137.13037109 C5.81753768 137.84001499 5.81753768 137.84001499 5 140 C8.91609328 142.12605794 12.83297308 144.25066275 16.75 146.375 C18.41675781 147.27992188 18.41675781 147.27992188 20.1171875 148.203125 C21.18710937 148.78320312 22.25703125 149.36328125 23.359375 149.9609375 C24.34389648 150.49509277 25.32841797 151.02924805 26.34277344 151.57958984 C28.5458267 152.75722342 30.75850879 153.89785598 33 155 C32.35916562 151.37409764 31.71148784 147.74945113 31.0625 144.125 C30.88009766 143.09246094 30.69769531 142.05992187 30.50976562 140.99609375 C30.33251953 140.00996094 30.15527344 139.02382812 29.97265625 138.0078125 C29.72914429 136.64100342 29.72914429 136.64100342 29.48071289 135.24658203 C29.09326213 132.97805304 29.09326213 132.97805304 28 131 C23.86519731 131 19.80723952 133.02714325 15.9375 134.375 Z M-44.90234375 160.203125 C-45.86422607 160.68257568 -46.8261084 161.16202637 -47.81713867 161.65600586 C-48.84685791 162.18202393 -49.87657715 162.70804199 -50.9375 163.25 C-52.00782471 163.79213135 -53.07814941 164.3342627 -54.1809082 164.89282227 C-71.19689598 173.59385097 -87.58231771 183.34252532 -103.71337891 193.58154297 C-105.23653113 194.52639824 -106.78122937 195.43737784 -108.34521484 196.31298828 C-109.07047363 196.72661621 -109.79573242 197.14024414 -110.54296875 197.56640625 C-111.18645264 197.91775635 -111.82993652 198.26910645 -112.49291992 198.63110352 C-116.02355786 201.83801862 -115.29988907 207.93736366 -115.5546875 212.4375 C-115.59673309 213.17266846 -115.63877869 213.90783691 -115.68209839 214.6652832 C-116.1386727 223.48925487 -116.15009598 232.31374568 -116.13037109 241.14746094 C-116.12500603 243.99679888 -116.13035645 246.84597926 -116.13671875 249.6953125 C-117.03284721 269.77073439 -117.03284721 269.77073439 -113 289 C-110.63128601 290.92872386 -108.47053926 292.44553523 -105.875 294 C-105.12637695 294.46438477 -104.37775391 294.92876953 -103.60644531 295.40722656 C-101.08333429 296.95951722 -98.54326779 298.48098661 -96 300 C-94.6711377 300.8053418 -94.6711377 300.8053418 -93.31542969 301.62695312 C-81.22955781 308.93747343 -68.91004737 315.74803227 -56.375 322.25 C-55.74799194 322.57641479 -55.12098389 322.90282959 -54.47497559 323.23913574 C-44.92786906 329.13446509 -44.92786906 329.13446509 -34.48071289 330.33178711 C-33.6530542 329.9013208 -32.82539551 329.47085449 -31.97265625 329.02734375 C-31.02704834 328.54628174 -30.08144043 328.06521973 -29.10717773 327.56958008 C-28.10243408 327.03099365 -27.09769043 326.49240723 -26.0625 325.9375 C-25.01070557 325.39182373 -23.95891113 324.84614746 -22.87524414 324.28393555 C-11.76272249 318.46703724 -0.83889275 312.3095818 10 306 C10.74137207 305.57058105 11.48274414 305.14116211 12.24658203 304.69873047 C16.54276446 302.20250557 20.79487008 299.64678645 25 297 C25.61681641 296.61328125 26.23363281 296.2265625 26.86914062 295.828125 C28.71815833 294.65511274 30.54875304 293.45809385 32.375 292.25 C33.43460938 291.55390625 34.49421875 290.8578125 35.5859375 290.140625 C39.4416871 286.72161079 39.11418052 282.61488621 39.43728638 277.63598633 C39.47602875 276.95173584 39.51477112 276.26748535 39.5546875 275.5625 C39.59673309 274.82733154 39.63877869 274.09216309 39.68209839 273.3347168 C40.1386727 264.51074513 40.15009598 255.68625432 40.13037109 246.85253906 C40.12500603 244.00320112 40.13035645 241.15402074 40.13671875 238.3046875 C40.14026467 229.6705509 40.04777345 221.05912266 39.5546875 212.4375 C39.49657394 211.41112427 39.49657394 211.41112427 39.43728638 210.36401367 C39.10749432 205.11657622 39.10749432 205.11657622 38 200 C35.73740955 198.23817181 33.65419143 196.85227181 31.1875 195.4375 C30.47464844 195.01186768 29.76179687 194.58623535 29.02734375 194.14770508 C27.48732301 193.2295009 25.94337387 192.31786033 24.39599609 191.41210938 C22.02438392 190.01437096 19.67628966 188.58369742 17.33203125 187.140625 C4.48747576 179.26574384 -8.67825386 172.03240554 -22 165 C-23.16740723 164.38125 -23.16740723 164.38125 -24.35839844 163.75 C-26.31656287 162.71759477 -28.28067619 161.69841955 -30.25 160.6875 C-31.80460937 159.88892578 -31.80460937 159.88892578 -33.390625 159.07421875 C-37.92557148 157.20728719 -40.73879182 158.11681529 -44.90234375 160.203125 Z M-158.8125 233.8125 C-166.46406634 240.46160934 -166.46406634 240.46160934 -170 243 C-168.67903042 245.98372849 -167.32466574 247.8660708 -164.84765625 249.98046875 C-164.23599609 250.50447266 -163.62433594 251.02847656 -162.99414062 251.56835938 C-162.35669922 252.10267578 -161.71925781 252.63699219 -161.0625 253.1875 C-160.42892578 253.73341797 -159.79535156 254.27933594 -159.14257812 254.84179688 C-155.43034185 258.01233883 -155.43034185 258.01233883 -151 260 C-151 249.44 -151 238.88 -151 228 C-153.55257249 228 -156.83543536 232.08977131 -158.8125 233.8125 Z M75 229 C75 239.23 75 249.46 75 260 C79.7638407 256.42711948 84.42009295 252.90342332 89 249.125 C89.94875 248.34382813 90.8975 247.56265625 91.875 246.7578125 C92.57625 246.17773438 93.2775 245.59765625 94 245 C90.53373744 241.49592366 87.00314485 238.08829306 83.375 234.75 C82.43398438 233.87859375 81.49296875 233.0071875 80.5234375 232.109375 C78.11565423 229.83532083 78.11565423 229.83532083 75 229 Z M-196 269 C-224.92514622 303.34588792 -224.92514622 303.34588792 -235.43359375 345.703125 C-234.44829423 353.19495201 -231.51594303 358.23582611 -225.5625 362.875 C-219.52154752 366.72089167 -212.92797336 368.42661411 -206 370 C-205.248396 370.1750708 -204.49679199 370.3501416 -203.72241211 370.53051758 C-197.8590005 371.54166819 -191.81437255 371.28999514 -185.875 371.3125 C-185.14900604 371.31611542 -184.42301208 371.31973083 -183.67501831 371.32345581 C-160.67153655 371.78315051 -160.67153655 371.78315051 -139 366 C-139.992926 357.20708867 -141.55061891 348.50472671 -143.08032227 339.79174805 C-144.12174797 333.78761976 -145.0899544 327.83858341 -145.50390625 321.75 C-145.97688703 311.8664068 -145.97688703 311.8664068 -150.83984375 303.625 C-153.73498493 301.14593445 -156.85781954 299.12244324 -160.12011719 297.16210938 C-163.07499217 295.33545938 -165.77022512 293.20503627 -168.5 291.0625 C-169.02464844 290.6617627 -169.54929687 290.26102539 -170.08984375 289.84814453 C-174.91054081 286.15198356 -179.50874632 282.20952223 -184.06835938 278.19750977 C-187.88398683 274.86223851 -191.83735035 271.89277805 -196 269 Z M118 270 C117.40574219 270.54527344 116.81148438 271.09054687 116.19921875 271.65234375 C109.96616148 277.32316568 103.56598533 282.72030885 97 288 C95.7850678 288.98426583 94.5702288 289.96864671 93.35546875 290.953125 C92.07059871 291.98993811 90.7854446 293.0263993 89.5 294.0625 C88.91968018 294.53276611 88.33936035 295.00303223 87.74145508 295.48754883 C86.86396606 296.1917395 86.86396606 296.1917395 85.96875 296.91015625 C85.36039307 297.4105542 84.75203613 297.91095215 84.12524414 298.42651367 C82 300 82 300 79.18530273 301.55200195 C74.46509187 304.3371087 71.57876521 306.35700741 69.71728516 311.64135742 C68.80778784 316.07717511 68.43814278 320.55617218 68.0625 325.0625 C67.89127635 326.67474207 67.71456042 328.28640992 67.5324707 329.89746094 C67.17240702 333.09892697 66.83163436 336.30152368 66.50292969 339.50634766 C65.84781707 345.63651593 64.80395416 351.68889771 63.6875 357.75 C63.51549072 358.70656494 63.34348145 359.66312988 63.16625977 360.64868164 C62.78365508 362.76690757 62.39296954 364.88367244 62 367 C65.95752611 367.65084344 69.91615311 368.2947434 73.875 368.9375 C74.98359375 369.11990234 76.0921875 369.30230469 77.234375 369.49023438 C100.2474431 373.21293657 128.8416175 375.84370393 149.5 362.875 C155.47358335 358.27320045 158.30439705 353.30842448 159.50390625 345.87890625 C160.89810793 320.21966254 142.11847574 295.52309243 126.4375 277 C125.93702148 276.40630615 125.43654297 275.8126123 124.92089844 275.20092773 C122.65704427 272.59765061 121.33165623 271.11055208 118 270 Z M-109 333 C-108.35916562 336.62590236 -107.71148784 340.25054887 -107.0625 343.875 C-106.88009766 344.90753906 -106.69769531 345.94007813 -106.50976562 347.00390625 C-106.33251953 347.99003906 -106.15527344 348.97617187 -105.97265625 349.9921875 C-105.81031494 350.90339355 -105.64797363 351.81459961 -105.48071289 352.75341797 C-105.09326213 355.02194696 -105.09326213 355.02194696 -104 357 C-96.10479003 355.18120817 -88.55490512 352.92975651 -81 350 C-83.67268511 347.14196601 -86.18563364 345.12965904 -89.625 343.2734375 C-90.93210938 342.561875 -90.93210938 342.561875 -92.265625 341.8359375 C-93.16796875 341.35382813 -94.0703125 340.87171875 -95 340.375 C-96.35351562 339.64023437 -96.35351562 339.64023437 -97.734375 338.890625 C-101.46367813 336.87150526 -105.19843944 334.8801668 -109 333 Z M20.125 339.3125 C19.00996094 339.90740234 17.89492188 340.50230469 16.74609375 341.11523438 C15.67746094 341.69208984 14.60882813 342.26894531 13.5078125 342.86328125 C12.52441895 343.39219971 11.54102539 343.92111816 10.52783203 344.46606445 C8.30614247 345.81422705 6.71225581 347.0681964 5 349 C12.54549287 352.33160505 19.97928527 355.05797655 28 357 C30.1142355 349.05047454 31.77409993 341.13420754 33 333 C29.03507797 333 23.55100436 337.4618283 20.125 339.3125 Z M-45.015625 371.81640625 C-46.50072959 372.41951598 -47.98600672 373.02220099 -49.47143555 373.62451172 C-50.2527182 373.94160095 -51.03400085 374.25869019 -51.83895874 374.58538818 C-65.74576667 380.22133751 -79.65378926 385.56783733 -94 390 C-93.56845529 397.54744151 -90.92706548 403.73738268 -87.9375 410.625 C-87.43943848 411.78273926 -86.94137695 412.94047852 -86.42822266 414.13330078 C-77.73367213 434.04211557 -65.84596018 456.19239242 -45 465.3125 C-37.1849249 467.10345471 -30.90167526 466.02348745 -24 462 C-2.79758484 445.48151708 11.8105815 418.6908591 19 393 C19 392.01 19 391.02 19 390 C18.33395752 389.79020508 17.66791504 389.58041016 16.98168945 389.36425781 C-0.6566293 383.76155072 -17.657486 377.25320291 -34.65283203 369.95874023 C-38.62486909 368.33629489 -41.21794145 370.26168726 -45.015625 371.81640625 Z " fill="#4DCFE0" transform="translate(294,12)"/>
<path d="M0 0 C2.73118841 2.04491356 5.05261602 4.15332456 7.30078125 6.72265625 C8.00074219 7.41875 8.00074219 7.41875 8.71484375 8.12890625 C17.48515337 17.30399939 21.22910956 29.70226242 21.328125 42.1640625 C20.66881724 57.56481554 15.25340578 70.24777516 4.17578125 81.03515625 C-8.03169405 91.58254906 -21.94025949 94.81366112 -37.69921875 93.72265625 C-50.77537239 91.81103182 -61.86957884 85.51712436 -70.69921875 75.72265625 C-80.33246404 62.64896622 -84.11560077 49.09119399 -82.26171875 32.84765625 C-79.51980664 18.87517263 -71.42922094 6.86369704 -59.796875 -1.07226562 C-41.372372 -13.29302268 -18.08057078 -12.32409383 0 0 Z " fill="#D4E1F4" transform="translate(286.69921875,214.27734375)"/>
</svg>
