<?xml version="1.0" encoding="UTF-8"?>
<svg version="1.1" xmlns="http://www.w3.org/2000/svg" width="200" height="200">
<path d="M0 0 C6.6331909 4.95958581 12.56057663 10.81007066 18.2890625 16.7734375 C24.4947904 23.10084634 30.74846769 26.03927629 39.6015625 26.2734375 C49.70288136 26.30130154 55.56088253 23.07881965 62.6640625 16.0859375 C63.96873972 14.70225733 65.26531206 13.31063907 66.5390625 11.8984375 C68.39273501 16.74561842 66.03872441 20.31294276 64.05859375 24.796875 C58.05918692 37.0424509 50.28536785 44.80936874 37.5390625 49.8984375 C22.28900286 54.68244979 4.31687252 53.45670596 -10.03515625 46.68359375 C-18.96104234 41.84932263 -26.23304679 34.28743763 -33.2109375 27.0234375 C-39.65503156 20.56385282 -46.27630352 17.42437324 -55.4609375 16.8984375 C-66.60775993 17.41573016 -74.19710244 24.0039801 -81.4609375 31.8984375 C-83.31461001 27.05125658 -80.96059941 23.48393224 -78.98046875 19 C-72.98106192 6.7544241 -65.20724285 -1.01249374 -52.4609375 -6.1015625 C-35.46377425 -11.43364905 -15.03548132 -9.64817531 0 0 Z " fill="#00ABC1" transform="translate(82.4609375,108.1015625)"/>
<path d="M0 0 C6.6331909 4.95958581 12.56057663 10.81007066 18.2890625 16.7734375 C24.73315656 23.23302218 31.35442852 26.37250176 40.5390625 26.8984375 C51.68588493 26.38114484 59.27522744 19.7928949 66.5390625 11.8984375 C68.39273501 16.74561842 66.03872441 20.31294276 64.05859375 24.796875 C58.05918692 37.0424509 50.28536785 44.80936874 37.5390625 49.8984375 C22.28900286 54.68244979 4.31687252 53.45670596 -10.03515625 46.68359375 C-18.96104234 41.84932263 -26.23304679 34.28743763 -33.2109375 27.0234375 C-39.65503156 20.56385282 -46.27630352 17.42437324 -55.4609375 16.8984375 C-66.60775993 17.41573016 -74.19710244 24.0039801 -81.4609375 31.8984375 C-83.31461001 27.05125658 -80.96059941 23.48393224 -78.98046875 19 C-72.98106192 6.7544241 -65.20724285 -1.01249374 -52.4609375 -6.1015625 C-35.46377425 -11.43364905 -15.03548132 -9.64817531 0 0 Z " fill="#00ACC1" transform="translate(132.4609375,48.1015625)"/>
</svg>
